<svg width="1920" height="1080" viewBox="0 0 1920 1080" fill="none" xmlns="http://www.w3.org/2000/svg">
<rect width="1920" height="1080" fill="white"/>
<rect width="1920" height="1080" fill="black"/>
<path d="M893.8 632V618.2L863.8 620.45C864.867 619.15 866.15 617.85 867.65 616.55C869.183 615.25 870.7 614.1 872.2 613.1C873.733 612.067 875.333 610.983 877 609.85C878.7 608.717 880.283 607.65 881.75 606.65C883.25 605.65 884.683 604.517 886.05 603.25C887.417 601.983 888.583 600.717 889.55 599.45C890.55 598.15 891.333 596.667 891.9 595C892.5 593.3 892.8 591.517 892.8 589.65C892.8 587.083 892.417 584.817 891.65 582.85C890.883 580.85 889.85 579.217 888.55 577.95C887.25 576.683 885.667 575.633 883.8 574.8C881.967 573.967 880.05 573.383 878.05 573.05C876.05 572.717 873.883 572.55 871.55 572.55C861.283 572.55 854.333 575.3 850.7 580.8L851.45 592.55L860.55 592.6L862.95 582.3C864.45 581.833 866.283 581.6 868.45 581.6C871.017 581.6 872.95 582.917 874.25 585.55C874.983 587.017 875.35 588.567 875.35 590.2C875.35 593.033 874.2 595.917 871.9 598.85C869.6 601.783 865.75 605.467 860.35 609.9C853.85 614.967 850.6 619.883 850.6 624.65C850.6 628.683 850.683 630.933 850.85 631.4L851.15 632H893.8ZM916.312 609.35V596.8C916.312 590.867 916.795 586.733 917.762 584.4C918.762 582.067 920.362 580.9 922.562 580.9C926.895 580.9 929.062 585.617 929.062 595.05V607.1C929.062 611.933 928.812 615.617 928.312 618.15C927.812 620.65 927.128 622.283 926.262 623.05C925.395 623.783 924.162 624.15 922.562 624.15C920.395 624.15 918.812 623.05 917.812 620.85C916.812 618.617 916.312 614.783 916.312 609.35ZM921.512 633.05C925.578 633.05 929.112 632.6 932.112 631.7C935.145 630.8 937.628 629.533 939.562 627.9C941.528 626.267 943.095 624.167 944.262 621.6C945.462 619.033 946.295 616.25 946.762 613.25C947.228 610.25 947.462 606.767 947.462 602.8C947.462 599 947.278 595.683 946.912 592.85C946.545 589.983 945.845 587.217 944.812 584.55C943.778 581.883 942.395 579.7 940.662 578C938.962 576.3 936.678 574.95 933.812 573.95C930.978 572.95 927.628 572.45 923.762 572.45C919.695 572.45 916.145 572.917 913.112 573.85C910.112 574.783 907.645 576.083 905.712 577.75C903.778 579.383 902.228 581.5 901.062 584.1C899.895 586.667 899.078 589.45 898.612 592.45C898.145 595.45 897.912 598.933 897.912 602.9C897.912 606.7 898.095 610.033 898.462 612.9C898.828 615.767 899.512 618.517 900.512 621.15C901.545 623.783 902.928 625.933 904.662 627.6C906.395 629.267 908.662 630.6 911.462 631.6C914.295 632.567 917.645 633.05 921.512 633.05ZM957.807 632.95H959.707L968.257 624.7V622.95L959.707 614.75H957.807L949.607 622.95V624.7L957.807 632.95ZM957.807 607.65H959.707L968.257 599.4V597.65L959.707 589.45H957.807L949.607 597.65V599.4L957.807 607.65ZM1016.11 632V618.2L986.114 620.45C987.181 619.15 988.464 617.85 989.964 616.55C991.498 615.25 993.014 614.1 994.514 613.1C996.048 612.067 997.648 610.983 999.314 609.85C1001.01 608.717 1002.6 607.65 1004.06 606.65C1005.56 605.65 1007 604.517 1008.36 603.25C1009.73 601.983 1010.9 600.717 1011.86 599.45C1012.86 598.15 1013.65 596.667 1014.21 595C1014.81 593.3 1015.11 591.517 1015.11 589.65C1015.11 587.083 1014.73 584.817 1013.96 582.85C1013.2 580.85 1012.16 579.217 1010.86 577.95C1009.56 576.683 1007.98 575.633 1006.11 574.8C1004.28 573.967 1002.36 573.383 1000.36 573.05C998.364 572.717 996.198 572.55 993.864 572.55C983.598 572.55 976.648 575.3 973.014 580.8L973.764 592.55L982.864 592.6L985.264 582.3C986.764 581.833 988.598 581.6 990.764 581.6C993.331 581.6 995.264 582.917 996.564 585.55C997.298 587.017 997.664 588.567 997.664 590.2C997.664 593.033 996.514 595.917 994.214 598.85C991.914 601.783 988.064 605.467 982.664 609.9C976.164 614.967 972.914 619.883 972.914 624.65C972.914 628.683 972.998 630.933 973.164 631.4L973.464 632H1016.11ZM1038.63 609.35V596.8C1038.63 590.867 1039.11 586.733 1040.08 584.4C1041.08 582.067 1042.68 580.9 1044.88 580.9C1049.21 580.9 1051.38 585.617 1051.38 595.05V607.1C1051.38 611.933 1051.13 615.617 1050.63 618.15C1050.13 620.65 1049.44 622.283 1048.58 623.05C1047.71 623.783 1046.48 624.15 1044.88 624.15C1042.71 624.15 1041.13 623.05 1040.13 620.85C1039.13 618.617 1038.63 614.783 1038.63 609.35ZM1043.83 633.05C1047.89 633.05 1051.43 632.6 1054.43 631.7C1057.46 630.8 1059.94 629.533 1061.88 627.9C1063.84 626.267 1065.41 624.167 1066.58 621.6C1067.78 619.033 1068.61 616.25 1069.08 613.25C1069.54 610.25 1069.78 606.767 1069.78 602.8C1069.78 599 1069.59 595.683 1069.23 592.85C1068.86 589.983 1068.16 587.217 1067.13 584.55C1066.09 581.883 1064.71 579.7 1062.98 578C1061.28 576.3 1058.99 574.95 1056.13 573.95C1053.29 572.95 1049.94 572.45 1046.08 572.45C1042.01 572.45 1038.46 572.917 1035.43 573.85C1032.43 574.783 1029.96 576.083 1028.03 577.75C1026.09 579.383 1024.54 581.5 1023.38 584.1C1022.21 586.667 1021.39 589.45 1020.93 592.45C1020.46 595.45 1020.23 598.933 1020.23 602.9C1020.23 606.7 1020.41 610.033 1020.78 612.9C1021.14 615.767 1021.83 618.517 1022.83 621.15C1023.86 623.783 1025.24 625.933 1026.98 627.6C1028.71 629.267 1030.98 630.6 1033.78 631.6C1036.61 632.567 1039.96 633.05 1043.83 633.05Z" fill="white"/>
<path d="M741.973 518L748.053 503.6L750.667 497.093L752.693 503.6L758.453 518H779.147L761.813 483.707L778.4 455.493H760.96L755.893 467.387L753.333 474.053L750.987 467.28L746.293 455.493H725.28L741.92 486.96L724.48 518H741.973ZM790.411 518L796.491 503.6L799.104 497.093L801.131 503.6L806.891 518H827.584L810.251 483.707L826.837 455.493H809.398L804.331 467.387L801.771 474.053L799.424 467.28L794.731 455.493H773.718L790.357 486.96L772.918 518H790.411ZM826.315 518H840.448L861.248 449.253H847.168L826.315 518ZM876.661 518L882.741 503.6L885.354 497.093L887.381 503.6L893.141 518H913.834L896.501 483.707L913.087 455.493H895.648L890.581 467.387L888.021 474.053L885.674 467.28L880.981 455.493H859.968L876.607 486.96L859.168 518H876.661ZM925.098 518L931.178 503.6L933.792 497.093L935.818 503.6L941.578 518H962.272L944.938 483.707L961.525 455.493H944.085L939.018 467.387L936.458 474.053L934.112 467.28L929.418 455.493H908.405L925.045 486.96L907.605 518H925.098ZM961.002 518H975.136L995.936 449.253H981.856L961.002 518ZM1011.35 518L1017.43 503.6L1020.04 497.093L1022.07 503.6L1027.83 518H1048.52L1031.19 483.707L1047.77 455.493H1030.34L1025.27 467.387L1022.71 474.053L1020.36 467.28L1015.67 455.493H994.655L1011.29 486.96L993.855 518H1011.35ZM1059.79 518L1065.87 503.6L1068.48 497.093L1070.51 503.6L1076.27 518H1096.96L1079.63 483.707L1096.21 455.493H1078.77L1073.71 467.387L1071.15 474.053L1068.8 467.28L1064.11 455.493H1043.09L1059.73 486.96L1042.29 518H1059.79ZM1108.22 518L1114.3 503.6L1116.92 497.093L1118.94 503.6L1124.7 518H1145.4L1128.06 483.707L1144.65 455.493H1127.21L1122.14 467.387L1119.58 474.053L1117.24 467.28L1112.54 455.493H1091.53L1108.17 486.96L1090.73 518H1108.22ZM1156.66 518L1162.74 503.6L1165.35 497.093L1167.38 503.6L1173.14 518H1193.83L1176.5 483.707L1193.09 455.493H1175.65L1170.58 467.387L1168.02 474.053L1165.67 467.28L1160.98 455.493H1139.97L1156.61 486.96L1139.17 518H1156.66Z" fill="white"/>
<path d="M600.257 386.993L600.937 393H611.023L611.08 354.013H585.863V365.573L593.343 367.273V373.053C593.343 375.093 593.154 376.774 592.777 378.097C592.399 379.381 591.813 380.363 591.02 381.043C590.227 381.686 589.377 382.139 588.47 382.403C587.563 382.63 586.449 382.743 585.127 382.743C582.444 382.743 580.65 380.76 579.743 376.793C578.874 372.827 578.44 366.744 578.44 358.547C578.44 354.618 578.61 351.293 578.95 348.573C579.29 345.816 579.724 343.643 580.253 342.057C580.82 340.432 581.576 339.204 582.52 338.373C583.502 337.504 584.484 336.938 585.467 336.673C586.449 336.409 587.696 336.277 589.207 336.277C591.058 336.277 592.399 336.503 593.23 336.957L596.46 344.493H606.773L607.623 331.46C607.548 331.384 607.434 331.271 607.283 331.12C607.17 330.969 606.849 330.686 606.32 330.27C605.791 329.854 605.206 329.477 604.563 329.137C603.959 328.759 603.109 328.343 602.013 327.89C600.956 327.399 599.822 327.002 598.613 326.7C597.404 326.36 595.931 326.077 594.193 325.85C592.493 325.623 590.699 325.51 588.81 325.51C584.617 325.51 580.877 325.888 577.59 326.643C574.303 327.361 571.508 328.457 569.203 329.93C566.899 331.403 564.953 333.141 563.367 335.143C561.78 337.108 560.533 339.45 559.627 342.17C558.72 344.89 558.059 347.742 557.643 350.727C557.266 353.711 557.077 357.073 557.077 360.813C557.077 365.838 557.53 370.314 558.437 374.243C559.381 378.172 560.854 381.667 562.857 384.727C564.859 387.787 567.56 390.129 570.96 391.753C574.398 393.378 578.459 394.19 583.143 394.19C589.754 394.19 595.459 391.791 600.257 386.993ZM642.807 363.703H634.193V358.943C634.193 357.583 634.231 356.469 634.307 355.6C634.42 354.693 634.647 353.824 634.987 352.993C635.327 352.124 635.856 351.501 636.573 351.123C637.291 350.708 638.217 350.5 639.35 350.5C640.672 350.5 641.579 351.501 642.07 353.503C642.561 355.506 642.807 358.906 642.807 363.703ZM638.273 394.19C640.54 394.19 642.92 393.926 645.413 393.397C647.907 392.868 650.494 391.848 653.177 390.337C655.897 388.788 657.956 386.88 659.353 384.613L656.01 378.89C654.952 379.872 653.63 380.722 652.043 381.44C650.494 382.158 648.946 382.687 647.397 383.027C645.886 383.367 644.469 383.537 643.147 383.537C641.787 383.537 640.634 383.423 639.69 383.197C638.746 382.97 637.82 382.517 636.913 381.837C636.007 381.157 635.308 380.099 634.817 378.663C634.363 377.228 634.137 375.396 634.137 373.167V372.09H660.033V365.8C660.033 358.056 658.428 352.446 655.217 348.97C652.006 345.457 646.679 343.7 639.237 343.7C631.492 343.7 625.467 345.872 621.16 350.217C616.853 354.561 614.7 360.964 614.7 369.427C614.7 372.978 615.116 376.208 615.947 379.117C616.778 381.988 618.081 384.576 619.857 386.88C621.67 389.184 624.126 390.979 627.223 392.263C630.359 393.548 634.042 394.19 638.273 394.19ZM684.475 393V359.963C684.551 359.888 684.683 359.774 684.872 359.623C685.099 359.434 685.25 359.302 685.325 359.227C685.439 359.151 685.59 359.038 685.779 358.887C686.005 358.698 686.175 358.566 686.289 358.49C686.402 358.414 686.553 358.32 686.742 358.207C686.931 358.056 687.101 357.961 687.252 357.923C687.403 357.848 687.573 357.772 687.762 357.697C687.989 357.583 688.178 357.508 688.329 357.47C688.518 357.432 688.706 357.394 688.895 357.357C689.122 357.319 689.349 357.3 689.575 357.3C692.711 357.3 694.222 359.076 694.109 362.627V393H712.809V364.27C712.809 364.006 712.828 363.647 712.865 363.193C712.865 362.74 712.865 362.4 712.865 362.173C712.865 355.524 711.789 350.783 709.635 347.95C707.52 345.117 703.874 343.7 698.699 343.7C697.225 343.7 695.714 344.002 694.165 344.607C692.654 345.173 691.351 345.872 690.255 346.703C689.16 347.497 688.159 348.309 687.252 349.14C686.383 349.971 685.722 350.689 685.269 351.293L684.589 352.143V344.833H674.955L662.772 348.177V354.24L666.172 356.337V393H684.475ZM745.404 363.703H736.791V358.943C736.791 357.583 736.829 356.469 736.904 355.6C737.018 354.693 737.244 353.824 737.584 352.993C737.924 352.124 738.453 351.501 739.171 351.123C739.889 350.708 740.814 350.5 741.948 350.5C743.27 350.5 744.177 351.501 744.668 353.503C745.159 355.506 745.404 358.906 745.404 363.703ZM740.871 394.19C743.138 394.19 745.518 393.926 748.011 393.397C750.504 392.868 753.092 391.848 755.774 390.337C758.494 388.788 760.553 386.88 761.951 384.613L758.608 378.89C757.55 379.872 756.228 380.722 754.641 381.44C753.092 382.158 751.543 382.687 749.994 383.027C748.483 383.367 747.067 383.537 745.744 383.537C744.384 383.537 743.232 383.423 742.288 383.197C741.343 382.97 740.418 382.517 739.511 381.837C738.604 381.157 737.905 380.099 737.414 378.663C736.961 377.228 736.734 375.396 736.734 373.167V372.09H762.631V365.8C762.631 358.056 761.025 352.446 757.814 348.97C754.603 345.457 749.277 343.7 741.834 343.7C734.09 343.7 728.064 345.872 723.758 350.217C719.451 354.561 717.298 360.964 717.298 369.427C717.298 372.978 717.713 376.208 718.544 379.117C719.375 381.988 720.679 384.576 722.454 386.88C724.268 389.184 726.723 390.979 729.821 392.263C732.957 393.548 736.64 394.19 740.871 394.19ZM787.073 393V367.103C788.168 365.063 790.643 364.043 794.496 364.043C797.178 364.043 798.916 364.402 799.71 365.12L801.636 344.947C800.616 344.607 799.634 344.437 798.69 344.437C790.303 344.437 785.335 349.064 783.786 358.32L782.143 344.833H777.553L765.37 347.837V354.24L768.77 356.337V393H787.073ZM828.903 387.39C825.428 387.39 823.69 383.82 823.69 376.68V358.263C823.69 355.846 824.143 353.976 825.05 352.653C825.956 351.331 827.222 350.67 828.846 350.67C832.322 350.67 834.06 354.353 834.06 361.72V379.627C834.06 382.044 833.606 383.952 832.7 385.35C831.831 386.71 830.565 387.39 828.903 387.39ZM828.45 394.19C837.403 394.19 843.958 392.112 848.113 387.957C852.306 383.801 854.403 377.379 854.403 368.69C854.403 360.303 852.42 354.051 848.453 349.933C844.524 345.778 838.121 343.7 829.243 343.7C820.139 343.7 813.565 345.872 809.523 350.217C805.481 354.523 803.46 360.946 803.46 369.483C803.46 378.097 805.462 384.368 809.466 388.297C813.471 392.226 819.799 394.19 828.45 394.19ZM888.286 385.463L890.043 393H905.74V344.833H884.15V351.35L887.21 353.39V380.023C887.096 380.099 886.926 380.231 886.7 380.42C886.511 380.571 886.36 380.684 886.246 380.76C886.171 380.836 886.038 380.949 885.85 381.1C885.661 381.213 885.51 381.308 885.396 381.383C885.283 381.459 885.132 381.553 884.943 381.667C884.754 381.742 884.584 381.799 884.433 381.837C884.32 381.874 884.168 381.931 883.98 382.007C883.791 382.044 883.602 382.082 883.413 382.12C883.224 382.12 883.016 382.12 882.79 382.12C881.203 382.12 880.107 381.723 879.503 380.93C878.898 380.099 878.615 378.833 878.653 377.133V344.833H858.083V351.35L860.066 353.39V373.563C860.066 380.968 861.2 386.257 863.466 389.43C865.771 392.603 869.586 394.19 874.913 394.19C876.613 394.19 878.294 393.812 879.956 393.057C881.618 392.339 883.016 391.47 884.15 390.45C885.283 389.392 886.19 388.429 886.87 387.56C887.587 386.691 888.06 385.992 888.286 385.463ZM928.439 394.19C943.059 394.19 950.369 388.372 950.369 376.737C950.369 372.732 949.367 369.389 947.365 366.707C945.363 364.024 942.152 361.947 937.732 360.473C936.939 360.247 935.994 360.001 934.899 359.737C933.803 359.434 932.953 359.208 932.349 359.057C931.744 358.868 931.121 358.641 930.479 358.377C929.874 358.074 929.44 357.734 929.175 357.357C928.911 356.941 928.779 356.431 928.779 355.827C928.779 353.711 930.573 352.653 934.162 352.653C938.544 352.653 941.982 353.881 944.475 356.337L946.969 348.233C946.969 348.233 946.629 347.912 945.949 347.27C942.889 344.89 938.129 343.7 931.669 343.7C927.891 343.7 924.472 344.248 921.412 345.343C918.352 346.439 915.84 348.214 913.875 350.67C911.911 353.088 910.929 355.997 910.929 359.397C910.929 367.708 915.33 373.186 924.132 375.83C927.532 376.85 929.987 377.757 931.499 378.55C933.01 379.306 933.765 380.174 933.765 381.157C933.765 382.177 933.331 382.97 932.462 383.537C931.631 384.103 930.082 384.387 927.815 384.387C924.68 384.387 921.601 383.933 918.579 383.027C915.594 382.12 913.46 381.043 912.175 379.797L910.702 388.92C911.722 390.053 914.045 391.224 917.672 392.433C921.299 393.604 924.887 394.19 928.439 394.19ZM996.083 393V368.237L1011.38 369.37V355.317H996.083V339.903L1014.73 341.037V326.587H977.326V393H996.083ZM1038.25 393V367.103C1039.35 365.063 1041.82 364.043 1045.68 364.043C1048.36 364.043 1050.1 364.402 1050.89 365.12L1052.82 344.947C1051.8 344.607 1050.82 344.437 1049.87 344.437C1041.48 344.437 1036.52 349.064 1034.97 358.32L1033.32 344.833H1028.73L1016.55 347.837V354.24L1019.95 356.337V393H1038.25ZM1080.08 387.39C1076.61 387.39 1074.87 383.82 1074.87 376.68V358.263C1074.87 355.846 1075.32 353.976 1076.23 352.653C1077.14 351.331 1078.4 350.67 1080.03 350.67C1083.5 350.67 1085.24 354.353 1085.24 361.72V379.627C1085.24 382.044 1084.79 383.952 1083.88 385.35C1083.01 386.71 1081.75 387.39 1080.08 387.39ZM1079.63 394.19C1088.58 394.19 1095.14 392.112 1099.29 387.957C1103.49 383.801 1105.58 377.379 1105.58 368.69C1105.58 360.303 1103.6 354.051 1099.63 349.933C1095.71 345.778 1089.3 343.7 1080.42 343.7C1071.32 343.7 1064.75 345.872 1060.7 350.217C1056.66 354.523 1054.64 360.946 1054.64 369.483C1054.64 378.097 1056.64 384.368 1060.65 388.297C1064.65 392.226 1070.98 394.19 1079.63 394.19ZM1133.57 413.003C1149.29 413.003 1157.15 405.637 1157.15 390.903V353.05L1160.55 350.67V345.343L1149.89 344.833H1141.22L1140.26 347.497C1136.82 345.419 1132.76 344.38 1128.08 344.38C1124.98 344.38 1122.2 345.041 1119.75 346.363C1117.29 347.648 1115.29 349.442 1113.74 351.747C1112.23 354.013 1111.08 356.658 1110.28 359.68C1109.49 362.664 1109.09 365.932 1109.09 369.483C1109.09 377.077 1110.55 383.008 1113.46 387.277C1116.37 391.546 1120.94 393.68 1127.17 393.68C1131.78 393.68 1135.69 392.018 1138.9 388.693V393.51C1138.86 394.341 1138.79 395.097 1138.67 395.777C1138.6 396.457 1138.37 397.212 1137.99 398.043C1137.62 398.912 1137.13 399.63 1136.52 400.197C1135.92 400.801 1135.05 401.292 1133.91 401.67C1132.82 402.086 1131.52 402.293 1130 402.293C1128.49 402.293 1126.68 401.991 1124.56 401.387C1122.45 400.782 1120.92 400.121 1119.97 399.403L1116.4 407.167C1117.5 408.376 1119.9 409.641 1123.6 410.963C1127.3 412.323 1130.63 413.003 1133.57 413.003ZM1135.39 383.367C1132.78 383.367 1130.91 381.874 1129.78 378.89C1129.14 377.152 1128.81 375.074 1128.81 372.657V363.873C1128.85 356.167 1131.38 352.294 1136.41 352.257C1137.16 352.257 1137.99 352.351 1138.9 352.54V382.403C1137.69 383.046 1136.52 383.367 1135.39 383.367ZM1229.1 388.297L1226.55 379.343C1225.19 380.326 1223.46 381.062 1221.34 381.553C1219.22 382.007 1217.2 382.233 1215.28 382.233C1214.41 382.233 1213.6 382.12 1212.84 381.893C1212.08 381.629 1211.23 381.043 1210.29 380.137C1209.35 379.23 1208.53 378.04 1207.85 376.567C1207.17 375.056 1206.59 372.902 1206.1 370.107C1205.64 367.311 1205.42 364.043 1205.42 360.303C1205.42 354.032 1205.78 349.234 1206.49 345.91C1207.21 342.548 1208.25 340.3 1209.61 339.167C1210.97 337.996 1212.92 337.41 1215.45 337.41C1215.9 337.41 1216.47 337.504 1217.15 337.693L1220.09 344.437H1228.71L1229.56 331.403C1229.44 331.252 1229.25 331.044 1228.99 330.78C1228.76 330.516 1228.16 330.043 1227.18 329.363C1226.23 328.683 1225.16 328.079 1223.95 327.55C1222.78 327.021 1221.15 326.549 1219.07 326.133C1217.03 325.718 1214.84 325.51 1212.5 325.51C1207.4 325.51 1203.07 326.284 1199.52 327.833C1195.97 329.382 1193.18 331.706 1191.14 334.803C1189.13 337.863 1187.7 341.433 1186.83 345.513C1185.96 349.556 1185.53 354.372 1185.53 359.963C1185.53 365.214 1185.96 369.842 1186.83 373.847C1187.7 377.813 1189.12 381.383 1191.08 384.557C1193.08 387.692 1195.84 390.091 1199.35 391.753C1202.87 393.378 1207.1 394.19 1212.05 394.19C1214.39 394.19 1216.58 393.982 1218.62 393.567C1220.66 393.189 1222.28 392.717 1223.49 392.15C1224.74 391.546 1225.8 390.96 1226.67 390.393C1227.57 389.789 1228.22 389.298 1228.59 388.92L1229.1 388.297ZM1234.15 393H1252.63V318.767H1248.94L1230.75 321.6V326.87L1234.15 328.91V393ZM1287.89 385.463L1289.64 393H1305.34V344.833H1283.75V351.35L1286.81 353.39V380.023C1286.7 380.099 1286.53 380.231 1286.3 380.42C1286.11 380.571 1285.96 380.684 1285.85 380.76C1285.77 380.836 1285.64 380.949 1285.45 381.1C1285.26 381.213 1285.11 381.308 1285 381.383C1284.88 381.459 1284.73 381.553 1284.54 381.667C1284.35 381.742 1284.18 381.799 1284.03 381.837C1283.92 381.874 1283.77 381.931 1283.58 382.007C1283.39 382.044 1283.2 382.082 1283.01 382.12C1282.82 382.12 1282.62 382.12 1282.39 382.12C1280.8 382.12 1279.71 381.723 1279.1 380.93C1278.5 380.099 1278.21 378.833 1278.25 377.133V344.833H1257.68V351.35L1259.67 353.39V373.563C1259.67 380.968 1260.8 386.257 1263.07 389.43C1265.37 392.603 1269.19 394.19 1274.51 394.19C1276.21 394.19 1277.89 393.812 1279.56 393.057C1281.22 392.339 1282.62 391.47 1283.75 390.45C1284.88 389.392 1285.79 388.429 1286.47 387.56C1287.19 386.691 1287.66 385.992 1287.89 385.463ZM1342.15 393C1345.28 393 1348.06 392.358 1350.48 391.073C1352.93 389.751 1354.94 387.938 1356.48 385.633C1358.03 383.329 1359.2 380.684 1360 377.7C1360.79 374.678 1361.19 371.391 1361.19 367.84C1361.19 360.284 1359.71 354.372 1356.77 350.103C1353.86 345.834 1349.29 343.7 1343.05 343.7C1341.58 343.7 1340.18 343.87 1338.86 344.21C1337.58 344.55 1336.42 345.003 1335.4 345.57C1334.38 346.137 1333.52 346.722 1332.8 347.327C1332.08 347.931 1331.42 348.573 1330.81 349.253V318.767H1327.13L1308.94 321.6V326.87L1312.34 328.91V393H1330.81V390.337C1334.14 392.112 1337.92 393 1342.15 393ZM1333.82 385.123C1333.36 385.123 1332.89 385.104 1332.4 385.067C1331.91 384.991 1331.38 384.878 1330.81 384.727V355.26C1332.25 354.24 1333.67 353.73 1335.06 353.73C1336.92 353.73 1338.43 354.618 1339.6 356.393C1340.81 358.131 1341.41 360.624 1341.41 363.873V373.507C1341.41 381.251 1338.88 385.123 1333.82 385.123Z" fill="white"/>
<path d="M423.48 821.8C423.729 821.8 424.118 821.816 424.647 821.847C425.207 821.878 425.736 821.909 426.233 821.94C426.731 821.971 427.307 822.002 427.96 822.033C428.644 822.033 429.282 822.033 429.873 822.033C429.967 822.033 430.044 822.033 430.107 822.033C430.698 823.931 431.149 826.296 431.46 829.127C431.802 831.927 432.067 834.338 432.253 836.36C432.44 838.351 432.704 839.564 433.047 840H450.267C449.613 839.16 449.007 837.9 448.447 836.22C447.918 834.54 447.436 832.844 447 831.133C446.596 829.391 446.113 827.68 445.553 826C444.993 824.289 444.2 822.811 443.173 821.567C442.178 820.322 440.98 819.529 439.58 819.187C442.162 817.538 444.231 815.313 445.787 812.513C447.373 809.713 448.167 806.509 448.167 802.9C448.167 796.802 446.502 792.276 443.173 789.32C439.876 786.364 434.867 784.887 428.147 784.887C426.218 784.887 423.776 784.964 420.82 785.12C417.864 785.244 415.64 785.307 414.147 785.307H407.987V840H423.48V821.8ZM423.48 813.12V793.893H424.367C427.011 793.893 429.033 794.438 430.433 795.527C431.864 796.584 432.58 798.467 432.58 801.173V804.86C432.58 806.104 432.487 807.193 432.3 808.127C432.113 809.06 431.833 809.822 431.46 810.413C431.087 811.004 430.682 811.487 430.247 811.86C429.842 812.233 429.313 812.513 428.66 812.7C428.038 812.856 427.462 812.964 426.933 813.027C426.404 813.089 425.751 813.12 424.973 813.12H423.48ZM474.711 815.873H467.617V811.953C467.617 810.833 467.648 809.916 467.711 809.2C467.804 808.453 467.991 807.738 468.271 807.053C468.551 806.338 468.986 805.824 469.577 805.513C470.168 805.171 470.931 805 471.864 805C472.953 805 473.699 805.824 474.104 807.473C474.508 809.122 474.711 811.922 474.711 815.873ZM470.977 840.98C472.844 840.98 474.804 840.762 476.857 840.327C478.911 839.891 481.042 839.051 483.251 837.807C485.491 836.531 487.186 834.96 488.337 833.093L485.584 828.38C484.713 829.189 483.624 829.889 482.317 830.48C481.042 831.071 479.766 831.507 478.491 831.787C477.246 832.067 476.079 832.207 474.991 832.207C473.871 832.207 472.922 832.113 472.144 831.927C471.366 831.74 470.604 831.367 469.857 830.807C469.111 830.247 468.535 829.376 468.131 828.193C467.757 827.011 467.571 825.502 467.571 823.667V822.78H488.897V817.6C488.897 811.222 487.575 806.602 484.931 803.74C482.286 800.847 477.899 799.4 471.771 799.4C465.393 799.4 460.431 801.189 456.884 804.767C453.337 808.344 451.564 813.618 451.564 820.587C451.564 823.511 451.906 826.171 452.591 828.567C453.275 830.931 454.348 833.062 455.811 834.96C457.304 836.858 459.326 838.336 461.877 839.393C464.459 840.451 467.493 840.98 470.977 840.98ZM497.639 856.053C502.213 856.053 505.604 854.171 507.812 850.407C510.053 846.673 511.173 841.384 511.173 834.54V800.333H503.846L493.112 802.807V807.8L496.519 809.667V837.807C496.519 839.456 496.457 840.871 496.332 842.053C496.208 843.267 496.053 844.2 495.866 844.853C495.71 845.538 495.492 846.067 495.213 846.44C494.932 846.844 494.668 847.093 494.419 847.187C494.201 847.311 493.937 847.373 493.626 847.373C492.257 847.373 490.888 846.938 489.519 846.067L487.139 851.107C489.815 854.404 493.315 856.053 497.639 856.053ZM503.519 796.04H505.293L513.273 788.34V786.707L505.293 779.053H503.519L495.866 786.707V788.34L503.519 796.04ZM537.738 815.873H530.645V811.953C530.645 810.833 530.676 809.916 530.738 809.2C530.831 808.453 531.018 807.738 531.298 807.053C531.578 806.338 532.013 805.824 532.605 805.513C533.196 805.171 533.958 805 534.891 805C535.98 805 536.727 805.824 537.131 807.473C537.536 809.122 537.738 811.922 537.738 815.873ZM534.005 840.98C535.871 840.98 537.831 840.762 539.885 840.327C541.938 839.891 544.069 839.051 546.278 837.807C548.518 836.531 550.213 834.96 551.365 833.093L548.611 828.38C547.74 829.189 546.651 829.889 545.345 830.48C544.069 831.071 542.793 831.507 541.518 831.787C540.273 832.067 539.107 832.207 538.018 832.207C536.898 832.207 535.949 832.113 535.171 831.927C534.393 831.74 533.631 831.367 532.885 830.807C532.138 830.247 531.562 829.376 531.158 828.193C530.785 827.011 530.598 825.502 530.598 823.667V822.78H551.925V817.6C551.925 811.222 550.602 806.602 547.958 803.74C545.313 800.847 540.927 799.4 534.798 799.4C528.42 799.4 523.458 801.189 519.911 804.767C516.365 808.344 514.591 813.618 514.591 820.587C514.591 823.511 514.933 826.171 515.618 828.567C516.302 830.931 517.376 833.062 518.838 834.96C520.331 836.858 522.353 838.336 524.905 839.393C527.487 840.451 530.52 840.98 534.005 840.98ZM588.2 836.127L585.867 829.78C584.809 830.62 583.455 831.227 581.807 831.6C580.189 831.973 578.602 832.16 577.047 832.16C576.362 832.16 575.787 832.129 575.32 832.067C574.853 832.004 574.247 831.771 573.5 831.367C572.784 830.962 572.209 830.402 571.773 829.687C571.338 828.94 570.949 827.836 570.607 826.373C570.264 824.88 570.093 823.091 570.093 821.007C570.093 816.216 570.622 812.856 571.68 810.927C572.769 808.967 574.729 807.987 577.56 807.987C577.995 807.987 578.338 808.018 578.587 808.08L581.247 815.22L587.873 815.173L588.573 804.207C588.573 804.207 588.247 803.88 587.593 803.227C584.607 800.644 580.407 799.353 574.993 799.353C572.193 799.353 569.58 799.851 567.153 800.847C564.758 801.811 562.658 803.196 560.853 805C559.08 806.773 557.68 809.013 556.653 811.72C555.627 814.427 555.113 817.429 555.113 820.727C555.113 826.824 556.778 831.724 560.107 835.427C563.467 839.129 568.304 840.98 574.62 840.98C576.487 840.98 578.229 840.809 579.847 840.467C581.495 840.156 582.802 839.767 583.767 839.3C584.762 838.802 585.602 838.32 586.287 837.853C587.002 837.356 587.5 836.951 587.78 836.64L588.2 836.127ZM604.13 840.98C606.246 840.98 608.159 840.747 609.87 840.28C611.613 839.813 612.857 839.362 613.604 838.927C614.35 838.46 614.957 837.993 615.424 837.527V831.18C615.081 831.46 614.646 831.678 614.117 831.833C613.588 831.989 612.997 832.067 612.344 832.067C610.85 832.067 609.746 831.662 609.03 830.853C608.315 830.044 607.957 828.396 607.957 825.907V808.547H615.75V800.333H608.097V789.46H599.884L595.124 800.333L589.617 802.06V808.547H592.837V824.413C592.837 830.418 593.661 834.68 595.31 837.2C596.99 839.72 599.93 840.98 604.13 840.98ZM653.534 840V817.693H665.528V840H680.974V785.307H665.528V806.96H653.534V785.307H638.088V840H653.534ZM710.503 833.793L711.95 840H724.876V800.333H707.096V805.7L709.616 807.38V829.313C709.523 829.376 709.383 829.484 709.196 829.64C709.041 829.764 708.916 829.858 708.823 829.92C708.761 829.982 708.652 830.076 708.496 830.2C708.341 830.293 708.216 830.371 708.123 830.433C708.03 830.496 707.905 830.573 707.75 830.667C707.594 830.729 707.454 830.776 707.33 830.807C707.236 830.838 707.112 830.884 706.956 830.947C706.801 830.978 706.645 831.009 706.49 831.04C706.334 831.04 706.163 831.04 705.976 831.04C704.67 831.04 703.767 830.713 703.27 830.06C702.772 829.376 702.539 828.333 702.57 826.933V800.333H685.63V805.7L687.263 807.38V823.993C687.263 830.091 688.196 834.447 690.063 837.06C691.961 839.673 695.103 840.98 699.49 840.98C700.89 840.98 702.274 840.669 703.643 840.047C705.012 839.456 706.163 838.74 707.096 837.9C708.03 837.029 708.776 836.236 709.336 835.52C709.927 834.804 710.316 834.229 710.503 833.793ZM746.37 840V812.793C746.432 812.731 746.541 812.638 746.696 812.513C746.883 812.358 747.007 812.249 747.07 812.187C747.163 812.124 747.287 812.031 747.443 811.907C747.63 811.751 747.77 811.642 747.863 811.58C747.956 811.518 748.081 811.44 748.236 811.347C748.392 811.222 748.532 811.144 748.656 811.113C748.781 811.051 748.921 810.989 749.076 810.927C749.263 810.833 749.418 810.771 749.543 810.74C749.698 810.709 749.854 810.678 750.01 810.647C750.196 810.616 750.383 810.6 750.57 810.6C753.152 810.6 754.396 812.062 754.303 814.987V840H769.703V817.693C769.703 815.951 769.656 814.333 769.563 812.84C771.118 811.347 772.347 810.6 773.25 810.6C774.587 810.6 775.583 810.989 776.236 811.767C776.89 812.544 777.216 813.618 777.216 814.987V840H792.383V816.34C792.383 811.922 792.01 808.5 791.263 806.073C790.516 803.647 789.318 801.936 787.67 800.94C786.052 799.913 783.781 799.4 780.856 799.4C778.212 799.4 775.785 800.209 773.576 801.827C771.398 803.413 769.781 805.124 768.723 806.96C768.038 804.284 766.872 802.356 765.223 801.173C763.574 799.991 761.194 799.4 758.083 799.4C756.87 799.4 755.641 799.649 754.396 800.147C753.183 800.613 752.141 801.142 751.27 801.733C750.43 802.324 749.605 803.009 748.796 803.787C747.987 804.564 747.427 805.14 747.116 805.513C746.836 805.856 746.618 806.136 746.463 806.353V800.333H738.53L728.496 803.087V808.08L731.296 809.807V840H746.37ZM818.448 835.847L819.942 840H832.728L831.422 836.36V817.367C831.422 813.944 831.157 811.129 830.628 808.92C830.1 806.68 829.197 804.844 827.922 803.413C826.677 801.951 825.044 800.924 823.022 800.333C821 799.711 818.433 799.4 815.322 799.4C811.806 799.4 808.353 799.929 804.962 800.987C801.571 802.013 798.817 803.211 796.702 804.58L799.688 810.927C800.871 810.304 802.504 809.776 804.588 809.34C806.673 808.873 808.68 808.64 810.608 808.64C812.848 808.64 814.466 809.029 815.462 809.807C816.488 810.584 817.002 811.922 817.002 813.82V814.66C815.944 814.66 814.84 814.707 813.688 814.8C812.537 814.893 811.231 815.08 809.768 815.36C808.306 815.64 806.906 815.998 805.568 816.433C804.262 816.838 802.955 817.413 801.648 818.16C800.342 818.876 799.222 819.7 798.288 820.633C797.355 821.567 796.593 822.718 796.002 824.087C795.411 825.424 795.115 826.902 795.115 828.52C795.115 836.827 799.315 840.98 807.715 840.98C808.96 840.98 810.173 840.793 811.355 840.42C812.537 840.078 813.533 839.658 814.342 839.16C815.182 838.662 815.913 838.164 816.535 837.667C817.188 837.169 817.671 836.733 817.982 836.36L818.448 835.847ZM814.762 832.767C812.117 832.767 810.795 830.822 810.795 826.933C810.795 824.756 811.355 823.153 812.475 822.127C813.595 821.069 815.104 820.54 817.002 820.54V831.74C817.002 831.74 816.908 831.833 816.722 832.02C816.535 832.176 816.255 832.347 815.882 832.533C815.54 832.689 815.166 832.767 814.762 832.767ZM852.463 840V812.793C852.526 812.731 852.634 812.638 852.79 812.513C852.977 812.358 853.101 812.249 853.163 812.187C853.257 812.124 853.381 812.031 853.537 811.907C853.723 811.751 853.863 811.642 853.957 811.58C854.05 811.518 854.174 811.44 854.33 811.347C854.486 811.222 854.626 811.144 854.75 811.113C854.874 811.051 855.014 810.989 855.17 810.927C855.357 810.833 855.512 810.771 855.637 810.74C855.792 810.709 855.948 810.678 856.103 810.647C856.29 810.616 856.477 810.6 856.663 810.6C859.246 810.6 860.49 812.062 860.397 814.987V840H875.797V816.34C875.797 816.122 875.812 815.827 875.843 815.453C875.843 815.08 875.843 814.8 875.843 814.613C875.843 809.138 874.957 805.233 873.183 802.9C871.441 800.567 868.439 799.4 864.177 799.4C862.963 799.4 861.719 799.649 860.443 800.147C859.199 800.613 858.126 801.189 857.223 801.873C856.321 802.527 855.497 803.196 854.75 803.88C854.034 804.564 853.49 805.156 853.117 805.653L852.557 806.353V800.333H844.623L834.59 803.087V808.08L837.39 809.807V840H852.463ZM881.687 840H896.714V800.333H888.92L878.887 803.087V808.08L881.687 809.807V840ZM888.454 796.04H890.227L898.207 788.34V786.707L890.227 779.053H888.454L880.8 786.707V788.34L888.454 796.04ZM914.072 840.98C916.187 840.98 918.101 840.747 919.812 840.28C921.554 839.813 922.798 839.362 923.545 838.927C924.292 838.46 924.898 837.993 925.365 837.527V831.18C925.023 831.46 924.587 831.678 924.058 831.833C923.529 831.989 922.938 832.067 922.285 832.067C920.792 832.067 919.687 831.662 918.972 830.853C918.256 830.044 917.898 828.396 917.898 825.907V808.547H925.692V800.333H918.038V789.46H909.825L905.065 800.333L899.558 802.06V808.547H902.778V824.413C902.778 830.418 903.603 834.68 905.252 837.2C906.932 839.72 909.872 840.98 914.072 840.98ZM948.945 856.053C955.074 856.053 959.601 854.187 962.525 850.453C965.45 846.72 966.912 841.416 966.912 834.54V800.333H949.132V805.7L951.699 807.38V829.313C951.263 829.687 950.843 829.998 950.439 830.247C950.065 830.496 949.676 830.698 949.272 830.853C948.867 830.978 948.463 831.04 948.059 831.04C946.69 831.04 945.772 830.713 945.305 830.06C944.87 829.376 944.652 828.318 944.652 826.887V800.333H927.665V805.7L929.345 807.38V823.947C929.345 830.107 930.294 834.493 932.192 837.107C934.09 839.689 937.356 840.98 941.992 840.98C943.205 840.98 944.387 840.731 945.539 840.233C946.721 839.736 947.716 839.144 948.525 838.46C949.334 837.744 950.05 837.044 950.672 836.36C951.325 835.644 951.807 835.038 952.119 834.54L952.585 833.793V837.807C952.554 839.673 952.352 841.244 951.979 842.52C951.605 843.796 951.061 844.776 950.345 845.46C949.63 846.176 948.821 846.673 947.919 846.953C947.016 847.233 945.943 847.373 944.699 847.373C940.779 847.373 937.916 846.86 936.112 845.833L933.685 850.873C934.992 852.46 937.061 853.72 939.892 854.653C942.723 855.587 945.741 856.053 948.945 856.053ZM977.912 851.573C981.085 848.836 983.496 845.74 985.145 842.287C986.825 838.833 987.665 835.8 987.665 833.187V831.553L979.685 823.9H977.912L970.258 831.553V833.187L976.838 839.813C976.434 841.867 975.687 843.718 974.598 845.367C973.541 847.047 972.498 848.322 971.472 849.193L977.912 851.573ZM1026.14 821.8C1026.39 821.8 1026.77 821.816 1027.3 821.847C1027.86 821.878 1028.39 821.909 1028.89 821.94C1029.39 821.971 1029.96 822.002 1030.62 822.033C1031.3 822.033 1031.94 822.033 1032.53 822.033C1032.62 822.033 1032.7 822.033 1032.76 822.033C1033.35 823.931 1033.81 826.296 1034.12 829.127C1034.46 831.927 1034.72 834.338 1034.91 836.36C1035.1 838.351 1035.36 839.564 1035.7 840H1052.92C1052.27 839.16 1051.66 837.9 1051.1 836.22C1050.57 834.54 1050.09 832.844 1049.66 831.133C1049.25 829.391 1048.77 827.68 1048.21 826C1047.65 824.289 1046.86 822.811 1045.83 821.567C1044.83 820.322 1043.64 819.529 1042.24 819.187C1044.82 817.538 1046.89 815.313 1048.44 812.513C1050.03 809.713 1050.82 806.509 1050.82 802.9C1050.82 796.802 1049.16 792.276 1045.83 789.32C1042.53 786.364 1037.52 784.887 1030.8 784.887C1028.87 784.887 1026.43 784.964 1023.48 785.12C1020.52 785.244 1018.3 785.307 1016.8 785.307H1010.64V840H1026.14V821.8ZM1026.14 813.12V793.893H1027.02C1029.67 793.893 1031.69 794.438 1033.09 795.527C1034.52 796.584 1035.24 798.467 1035.24 801.173V804.86C1035.24 806.104 1035.14 807.193 1034.96 808.127C1034.77 809.06 1034.49 809.822 1034.12 810.413C1033.74 811.004 1033.34 811.487 1032.9 811.86C1032.5 812.233 1031.97 812.513 1031.32 812.7C1030.69 812.856 1030.12 812.964 1029.59 813.027C1029.06 813.089 1028.41 813.12 1027.63 813.12H1026.14ZM1077.37 815.873H1070.27V811.953C1070.27 810.833 1070.3 809.916 1070.37 809.2C1070.46 808.453 1070.65 807.738 1070.93 807.053C1071.21 806.338 1071.64 805.824 1072.23 805.513C1072.82 805.171 1073.59 805 1074.52 805C1075.61 805 1076.36 805.824 1076.76 807.473C1077.16 809.122 1077.37 811.922 1077.37 815.873ZM1073.63 840.98C1075.5 840.98 1077.46 840.762 1079.51 840.327C1081.57 839.891 1083.7 839.051 1085.91 837.807C1088.15 836.531 1089.84 834.96 1090.99 833.093L1088.24 828.38C1087.37 829.189 1086.28 829.889 1084.97 830.48C1083.7 831.071 1082.42 831.507 1081.15 831.787C1079.9 832.067 1078.74 832.207 1077.65 832.207C1076.53 832.207 1075.58 832.113 1074.8 831.927C1074.02 831.74 1073.26 831.367 1072.51 830.807C1071.77 830.247 1071.19 829.376 1070.79 828.193C1070.41 827.011 1070.23 825.502 1070.23 823.667V822.78H1091.55V817.6C1091.55 811.222 1090.23 806.602 1087.59 803.74C1084.94 800.847 1080.56 799.4 1074.43 799.4C1068.05 799.4 1063.09 801.189 1059.54 804.767C1055.99 808.344 1054.22 813.618 1054.22 820.587C1054.22 823.511 1054.56 826.171 1055.25 828.567C1055.93 830.931 1057 833.062 1058.47 834.96C1059.96 836.858 1061.98 838.336 1064.53 839.393C1067.12 840.451 1070.15 840.98 1073.63 840.98ZM1107.53 840.98C1109.64 840.98 1111.56 840.747 1113.27 840.28C1115.01 839.813 1116.26 839.362 1117 838.927C1117.75 838.46 1118.36 837.993 1118.82 837.527V831.18C1118.48 831.46 1118.04 831.678 1117.52 831.833C1116.99 831.989 1116.4 832.067 1115.74 832.067C1114.25 832.067 1113.14 831.662 1112.43 830.853C1111.71 830.044 1111.36 828.396 1111.36 825.907V808.547H1119.15V800.333H1111.5V789.46H1103.28L1098.52 800.333L1093.02 802.06V808.547H1096.24V824.413C1096.24 830.418 1097.06 834.68 1098.71 837.2C1100.39 839.72 1103.33 840.98 1107.53 840.98ZM1146.09 833.793L1147.54 840H1160.46V800.333H1142.68V805.7L1145.2 807.38V829.313C1145.11 829.376 1144.97 829.484 1144.78 829.64C1144.63 829.764 1144.5 829.858 1144.41 829.92C1144.35 829.982 1144.24 830.076 1144.08 830.2C1143.93 830.293 1143.8 830.371 1143.71 830.433C1143.62 830.496 1143.49 830.573 1143.34 830.667C1143.18 830.729 1143.04 830.776 1142.92 830.807C1142.82 830.838 1142.7 830.884 1142.54 830.947C1142.39 830.978 1142.23 831.009 1142.08 831.04C1141.92 831.04 1141.75 831.04 1141.56 831.04C1140.26 831.04 1139.35 830.713 1138.86 830.06C1138.36 829.376 1138.12 828.333 1138.16 826.933V800.333H1121.22V805.7L1122.85 807.38V823.993C1122.85 830.091 1123.78 834.447 1125.65 837.06C1127.55 839.673 1130.69 840.98 1135.08 840.98C1136.48 840.98 1137.86 840.669 1139.23 840.047C1140.6 839.456 1141.75 838.74 1142.68 837.9C1143.62 837.029 1144.36 836.236 1144.92 835.52C1145.51 834.804 1145.9 834.229 1146.09 833.793ZM1181.96 840V818.673C1182.86 816.993 1184.9 816.153 1188.07 816.153C1190.28 816.153 1191.71 816.449 1192.36 817.04L1193.95 800.427C1193.11 800.147 1192.3 800.007 1191.52 800.007C1184.62 800.007 1180.52 803.818 1179.25 811.44L1177.9 800.333H1174.12L1164.08 802.807V808.08L1166.88 809.807V840H1181.96ZM1212.72 840V812.793C1212.78 812.731 1212.89 812.638 1213.04 812.513C1213.23 812.358 1213.36 812.249 1213.42 812.187C1213.51 812.124 1213.64 812.031 1213.79 811.907C1213.98 811.751 1214.12 811.642 1214.21 811.58C1214.3 811.518 1214.43 811.44 1214.58 811.347C1214.74 811.222 1214.88 811.144 1215 811.113C1215.13 811.051 1215.27 810.989 1215.42 810.927C1215.61 810.833 1215.77 810.771 1215.89 810.74C1216.05 810.709 1216.2 810.678 1216.36 810.647C1216.54 810.616 1216.73 810.6 1216.92 810.6C1219.5 810.6 1220.74 812.062 1220.65 814.987V840H1236.05V816.34C1236.05 816.122 1236.07 815.827 1236.1 815.453C1236.1 815.08 1236.1 814.8 1236.1 814.613C1236.1 809.138 1235.21 805.233 1233.44 802.9C1231.7 800.567 1228.69 799.4 1224.43 799.4C1223.22 799.4 1221.97 799.649 1220.7 800.147C1219.45 800.613 1218.38 801.189 1217.48 801.873C1216.58 802.527 1215.75 803.196 1215 803.88C1214.29 804.564 1213.74 805.156 1213.37 805.653L1212.81 806.353V800.333H1204.88L1194.84 803.087V808.08L1197.64 809.807V840H1212.72ZM1268.84 840H1284.61V797.673H1295.53V785.307H1257.92V797.673H1268.84V840ZM1318.94 835.38C1316.08 835.38 1314.65 832.44 1314.65 826.56V811.393C1314.65 809.402 1315.02 807.862 1315.77 806.773C1316.52 805.684 1317.56 805.14 1318.9 805.14C1321.76 805.14 1323.19 808.173 1323.19 814.24V828.987C1323.19 830.978 1322.82 832.549 1322.07 833.7C1321.35 834.82 1320.31 835.38 1318.94 835.38ZM1318.57 840.98C1325.94 840.98 1331.34 839.269 1334.76 835.847C1338.22 832.424 1339.94 827.136 1339.94 819.98C1339.94 813.073 1338.31 807.924 1335.04 804.533C1331.81 801.111 1326.53 799.4 1319.22 799.4C1311.73 799.4 1306.31 801.189 1302.98 804.767C1299.65 808.313 1297.99 813.602 1297.99 820.633C1297.99 827.727 1299.64 832.891 1302.94 836.127C1306.23 839.362 1311.45 840.98 1318.57 840.98ZM1378.69 840V819.607L1391.29 820.54V808.967H1378.69V796.273L1394.04 797.207V785.307H1363.24V840H1378.69ZM1413.42 840V818.673C1414.32 816.993 1416.36 816.153 1419.53 816.153C1421.74 816.153 1423.17 816.449 1423.83 817.04L1425.41 800.427C1424.57 800.147 1423.76 800.007 1422.99 800.007C1416.08 800.007 1411.99 803.818 1410.71 811.44L1409.36 800.333H1405.58L1395.55 802.807V808.08L1398.35 809.807V840H1413.42ZM1447.87 835.38C1445.01 835.38 1443.58 832.44 1443.58 826.56V811.393C1443.58 809.402 1443.95 807.862 1444.7 806.773C1445.44 805.684 1446.48 805.14 1447.82 805.14C1450.68 805.14 1452.12 808.173 1452.12 814.24V828.987C1452.12 830.978 1451.74 832.549 1451 833.7C1450.28 834.82 1449.24 835.38 1447.87 835.38ZM1447.5 840.98C1454.87 840.98 1460.27 839.269 1463.69 835.847C1467.14 832.424 1468.87 827.136 1468.87 819.98C1468.87 813.073 1467.24 807.924 1463.97 804.533C1460.73 801.111 1455.46 799.4 1448.15 799.4C1440.65 799.4 1435.24 801.189 1431.91 804.767C1428.58 808.313 1426.92 813.602 1426.92 820.633C1426.92 827.727 1428.56 832.891 1431.86 836.127C1435.16 839.362 1440.37 840.98 1447.5 840.98ZM1491.92 856.473C1504.86 856.473 1511.33 850.407 1511.33 838.273V807.1L1514.13 805.14V800.753L1505.36 800.333H1498.22L1497.43 802.527C1494.59 800.816 1491.25 799.96 1487.39 799.96C1484.84 799.96 1482.55 800.504 1480.53 801.593C1478.51 802.651 1476.86 804.129 1475.59 806.027C1474.34 807.893 1473.39 810.071 1472.74 812.56C1472.09 815.018 1471.76 817.709 1471.76 820.633C1471.76 826.887 1472.96 831.771 1475.35 835.287C1477.75 838.802 1481.51 840.56 1486.65 840.56C1490.44 840.56 1493.66 839.191 1496.31 836.453V840.42C1496.27 841.104 1496.21 841.727 1496.12 842.287C1496.06 842.847 1495.87 843.469 1495.56 844.153C1495.25 844.869 1494.84 845.46 1494.35 845.927C1493.85 846.424 1493.13 846.829 1492.2 847.14C1491.3 847.482 1490.22 847.653 1488.98 847.653C1487.73 847.653 1486.24 847.404 1484.5 846.907C1482.76 846.409 1481.5 845.864 1480.72 845.273L1477.78 851.667C1478.68 852.662 1480.66 853.704 1483.71 854.793C1486.75 855.913 1489.49 856.473 1491.92 856.473ZM1493.41 832.067C1491.27 832.067 1489.73 830.838 1488.79 828.38C1488.26 826.949 1488 825.238 1488 823.247V816.013C1488.03 809.667 1490.11 806.478 1494.25 806.447C1494.87 806.447 1495.56 806.524 1496.31 806.68V831.273C1495.31 831.802 1494.35 832.067 1493.41 832.067Z" fill="white"/>
</svg>
