<svg width="1920" height="806" viewBox="0 0 1920 806" fill="none" xmlns="http://www.w3.org/2000/svg">
<g clip-path="url(#clip0_3_6)">
<rect width="1920" height="806" fill="white"/>
<rect width="1920" height="921" fill="black"/>
<path d="M893.8 414V400.2L863.8 402.45C864.867 401.15 866.15 399.85 867.65 398.55C869.183 397.25 870.7 396.1 872.2 395.1C873.733 394.067 875.333 392.983 877 391.85C878.7 390.717 880.283 389.65 881.75 388.65C883.25 387.65 884.683 386.517 886.05 385.25C887.417 383.983 888.583 382.717 889.55 381.45C890.55 380.15 891.333 378.667 891.9 377C892.5 375.3 892.8 373.517 892.8 371.65C892.8 369.083 892.417 366.817 891.65 364.85C890.883 362.85 889.85 361.217 888.55 359.95C887.25 358.683 885.667 357.633 883.8 356.8C881.967 355.967 880.05 355.383 878.05 355.05C876.05 354.717 873.883 354.55 871.55 354.55C861.283 354.55 854.333 357.3 850.7 362.8L851.45 374.55L860.55 374.6L862.95 364.3C864.45 363.833 866.283 363.6 868.45 363.6C871.017 363.6 872.95 364.917 874.25 367.55C874.983 369.017 875.35 370.567 875.35 372.2C875.35 375.033 874.2 377.917 871.9 380.85C869.6 383.783 865.75 387.467 860.35 391.9C853.85 396.967 850.6 401.883 850.6 406.65C850.6 410.683 850.683 412.933 850.85 413.4L851.15 414H893.8ZM916.312 391.35V378.8C916.312 372.867 916.795 368.733 917.762 366.4C918.762 364.067 920.362 362.9 922.562 362.9C926.895 362.9 929.062 367.617 929.062 377.05V389.1C929.062 393.933 928.812 397.617 928.312 400.15C927.812 402.65 927.128 404.283 926.262 405.05C925.395 405.783 924.162 406.15 922.562 406.15C920.395 406.15 918.812 405.05 917.812 402.85C916.812 400.617 916.312 396.783 916.312 391.35ZM921.512 415.05C925.578 415.05 929.112 414.6 932.112 413.7C935.145 412.8 937.628 411.533 939.562 409.9C941.528 408.267 943.095 406.167 944.262 403.6C945.462 401.033 946.295 398.25 946.762 395.25C947.228 392.25 947.462 388.767 947.462 384.8C947.462 381 947.278 377.683 946.912 374.85C946.545 371.983 945.845 369.217 944.812 366.55C943.778 363.883 942.395 361.7 940.662 360C938.962 358.3 936.678 356.95 933.812 355.95C930.978 354.95 927.628 354.45 923.762 354.45C919.695 354.45 916.145 354.917 913.112 355.85C910.112 356.783 907.645 358.083 905.712 359.75C903.778 361.383 902.228 363.5 901.062 366.1C899.895 368.667 899.078 371.45 898.612 374.45C898.145 377.45 897.912 380.933 897.912 384.9C897.912 388.7 898.095 392.033 898.462 394.9C898.828 397.767 899.512 400.517 900.512 403.15C901.545 405.783 902.928 407.933 904.662 409.6C906.395 411.267 908.662 412.6 911.462 413.6C914.295 414.567 917.645 415.05 921.512 415.05ZM957.807 414.95H959.707L968.257 406.7V404.95L959.707 396.75H957.807L949.607 404.95V406.7L957.807 414.95ZM957.807 389.65H959.707L968.257 381.4V379.65L959.707 371.45H957.807L949.607 379.65V381.4L957.807 389.65ZM1016.11 414V400.2L986.114 402.45C987.181 401.15 988.464 399.85 989.964 398.55C991.498 397.25 993.014 396.1 994.514 395.1C996.048 394.067 997.648 392.983 999.314 391.85C1001.01 390.717 1002.6 389.65 1004.06 388.65C1005.56 387.65 1007 386.517 1008.36 385.25C1009.73 383.983 1010.9 382.717 1011.86 381.45C1012.86 380.15 1013.65 378.667 1014.21 377C1014.81 375.3 1015.11 373.517 1015.11 371.65C1015.11 369.083 1014.73 366.817 1013.96 364.85C1013.2 362.85 1012.16 361.217 1010.86 359.95C1009.56 358.683 1007.98 357.633 1006.11 356.8C1004.28 355.967 1002.36 355.383 1000.36 355.05C998.364 354.717 996.198 354.55 993.864 354.55C983.598 354.55 976.648 357.3 973.014 362.8L973.764 374.55L982.864 374.6L985.264 364.3C986.764 363.833 988.598 363.6 990.764 363.6C993.331 363.6 995.264 364.917 996.564 367.55C997.298 369.017 997.664 370.567 997.664 372.2C997.664 375.033 996.514 377.917 994.214 380.85C991.914 383.783 988.064 387.467 982.664 391.9C976.164 396.967 972.914 401.883 972.914 406.65C972.914 410.683 972.998 412.933 973.164 413.4L973.464 414H1016.11ZM1038.63 391.35V378.8C1038.63 372.867 1039.11 368.733 1040.08 366.4C1041.08 364.067 1042.68 362.9 1044.88 362.9C1049.21 362.9 1051.38 367.617 1051.38 377.05V389.1C1051.38 393.933 1051.13 397.617 1050.63 400.15C1050.13 402.65 1049.44 404.283 1048.58 405.05C1047.71 405.783 1046.48 406.15 1044.88 406.15C1042.71 406.15 1041.13 405.05 1040.13 402.85C1039.13 400.617 1038.63 396.783 1038.63 391.35ZM1043.83 415.05C1047.89 415.05 1051.43 414.6 1054.43 413.7C1057.46 412.8 1059.94 411.533 1061.88 409.9C1063.84 408.267 1065.41 406.167 1066.58 403.6C1067.78 401.033 1068.61 398.25 1069.08 395.25C1069.54 392.25 1069.78 388.767 1069.78 384.8C1069.78 381 1069.59 377.683 1069.23 374.85C1068.86 371.983 1068.16 369.217 1067.13 366.55C1066.09 363.883 1064.71 361.7 1062.98 360C1061.28 358.3 1058.99 356.95 1056.13 355.95C1053.29 354.95 1049.94 354.45 1046.08 354.45C1042.01 354.45 1038.46 354.917 1035.43 355.85C1032.43 356.783 1029.96 358.083 1028.03 359.75C1026.09 361.383 1024.54 363.5 1023.38 366.1C1022.21 368.667 1021.39 371.45 1020.93 374.45C1020.46 377.45 1020.23 380.933 1020.23 384.9C1020.23 388.7 1020.41 392.033 1020.78 394.9C1021.14 397.767 1021.83 400.517 1022.83 403.15C1023.86 405.783 1025.24 407.933 1026.98 409.6C1028.71 411.267 1030.98 412.6 1033.78 413.6C1036.61 414.567 1039.96 415.05 1043.83 415.05Z" fill="white"/>
<path d="M741.973 322L748.053 307.6L750.667 301.093L752.693 307.6L758.453 322H779.147L761.813 287.707L778.4 259.493H760.96L755.893 271.387L753.333 278.053L750.987 271.28L746.293 259.493H725.28L741.92 290.96L724.48 322H741.973ZM790.411 322L796.491 307.6L799.104 301.093L801.131 307.6L806.891 322H827.584L810.251 287.707L826.837 259.493H809.398L804.331 271.387L801.771 278.053L799.424 271.28L794.731 259.493H773.718L790.357 290.96L772.918 322H790.411ZM826.315 322H840.448L861.248 253.253H847.168L826.315 322ZM876.661 322L882.741 307.6L885.354 301.093L887.381 307.6L893.141 322H913.834L896.501 287.707L913.087 259.493H895.648L890.581 271.387L888.021 278.053L885.674 271.28L880.981 259.493H859.968L876.607 290.96L859.168 322H876.661ZM925.098 322L931.178 307.6L933.792 301.093L935.818 307.6L941.578 322H962.272L944.938 287.707L961.525 259.493H944.085L939.018 271.387L936.458 278.053L934.112 271.28L929.418 259.493H908.405L925.045 290.96L907.605 322H925.098ZM961.002 322H975.136L995.936 253.253H981.856L961.002 322ZM1011.35 322L1017.43 307.6L1020.04 301.093L1022.07 307.6L1027.83 322H1048.52L1031.19 287.707L1047.77 259.493H1030.34L1025.27 271.387L1022.71 278.053L1020.36 271.28L1015.67 259.493H994.655L1011.29 290.96L993.855 322H1011.35ZM1059.79 322L1065.87 307.6L1068.48 301.093L1070.51 307.6L1076.27 322H1096.96L1079.63 287.707L1096.21 259.493H1078.77L1073.71 271.387L1071.15 278.053L1068.8 271.28L1064.11 259.493H1043.09L1059.73 290.96L1042.29 322H1059.79ZM1108.22 322L1114.3 307.6L1116.92 301.093L1118.94 307.6L1124.7 322H1145.4L1128.06 287.707L1144.65 259.493H1127.21L1122.14 271.387L1119.58 278.053L1117.24 271.28L1112.54 259.493H1091.53L1108.17 290.96L1090.73 322H1108.22ZM1156.66 322L1162.74 307.6L1165.35 301.093L1167.38 307.6L1173.14 322H1193.83L1176.5 287.707L1193.09 259.493H1175.65L1170.58 271.387L1168.02 278.053L1165.67 271.28L1160.98 259.493H1139.97L1156.61 290.96L1139.17 322H1156.66Z" fill="white"/>
<path d="M600.257 196.993L600.937 203H611.023L611.08 164.013H585.863V175.573L593.343 177.273V183.053C593.343 185.093 593.154 186.774 592.777 188.097C592.399 189.381 591.813 190.363 591.02 191.043C590.227 191.686 589.377 192.139 588.47 192.403C587.563 192.63 586.449 192.743 585.127 192.743C582.444 192.743 580.65 190.76 579.743 186.793C578.874 182.827 578.44 176.744 578.44 168.547C578.44 164.618 578.61 161.293 578.95 158.573C579.29 155.816 579.724 153.643 580.253 152.057C580.82 150.432 581.576 149.204 582.52 148.373C583.502 147.504 584.484 146.938 585.467 146.673C586.449 146.409 587.696 146.277 589.207 146.277C591.058 146.277 592.399 146.503 593.23 146.957L596.46 154.493H606.773L607.623 141.46C607.548 141.384 607.434 141.271 607.283 141.12C607.17 140.969 606.849 140.686 606.32 140.27C605.791 139.854 605.206 139.477 604.563 139.137C603.959 138.759 603.109 138.343 602.013 137.89C600.956 137.399 599.822 137.002 598.613 136.7C597.404 136.36 595.931 136.077 594.193 135.85C592.493 135.623 590.699 135.51 588.81 135.51C584.617 135.51 580.877 135.888 577.59 136.643C574.303 137.361 571.508 138.457 569.203 139.93C566.899 141.403 564.953 143.141 563.367 145.143C561.78 147.108 560.533 149.45 559.627 152.17C558.72 154.89 558.059 157.742 557.643 160.727C557.266 163.711 557.077 167.073 557.077 170.813C557.077 175.838 557.53 180.314 558.437 184.243C559.381 188.172 560.854 191.667 562.857 194.727C564.859 197.787 567.56 200.129 570.96 201.753C574.398 203.378 578.459 204.19 583.143 204.19C589.754 204.19 595.459 201.791 600.257 196.993ZM642.807 173.703H634.193V168.943C634.193 167.583 634.231 166.469 634.307 165.6C634.42 164.693 634.647 163.824 634.987 162.993C635.327 162.124 635.856 161.501 636.573 161.123C637.291 160.708 638.217 160.5 639.35 160.5C640.672 160.5 641.579 161.501 642.07 163.503C642.561 165.506 642.807 168.906 642.807 173.703ZM638.273 204.19C640.54 204.19 642.92 203.926 645.413 203.397C647.907 202.868 650.494 201.848 653.177 200.337C655.897 198.788 657.956 196.88 659.353 194.613L656.01 188.89C654.952 189.872 653.63 190.722 652.043 191.44C650.494 192.158 648.946 192.687 647.397 193.027C645.886 193.367 644.469 193.537 643.147 193.537C641.787 193.537 640.634 193.423 639.69 193.197C638.746 192.97 637.82 192.517 636.913 191.837C636.007 191.157 635.308 190.099 634.817 188.663C634.363 187.228 634.137 185.396 634.137 183.167V182.09H660.033V175.8C660.033 168.056 658.428 162.446 655.217 158.97C652.006 155.457 646.679 153.7 639.237 153.7C631.492 153.7 625.467 155.872 621.16 160.217C616.853 164.561 614.7 170.964 614.7 179.427C614.7 182.978 615.116 186.208 615.947 189.117C616.778 191.988 618.081 194.576 619.857 196.88C621.67 199.184 624.126 200.979 627.223 202.263C630.359 203.548 634.042 204.19 638.273 204.19ZM684.475 203V169.963C684.551 169.888 684.683 169.774 684.872 169.623C685.099 169.434 685.25 169.302 685.325 169.227C685.439 169.151 685.59 169.038 685.779 168.887C686.005 168.698 686.175 168.566 686.289 168.49C686.402 168.414 686.553 168.32 686.742 168.207C686.931 168.056 687.101 167.961 687.252 167.923C687.403 167.848 687.573 167.772 687.762 167.697C687.989 167.583 688.178 167.508 688.329 167.47C688.518 167.432 688.706 167.394 688.895 167.357C689.122 167.319 689.349 167.3 689.575 167.3C692.711 167.3 694.222 169.076 694.109 172.627V203H712.809V174.27C712.809 174.006 712.828 173.647 712.865 173.193C712.865 172.74 712.865 172.4 712.865 172.173C712.865 165.524 711.789 160.783 709.635 157.95C707.52 155.117 703.874 153.7 698.699 153.7C697.225 153.7 695.714 154.002 694.165 154.607C692.654 155.173 691.351 155.872 690.255 156.703C689.16 157.497 688.159 158.309 687.252 159.14C686.383 159.971 685.722 160.689 685.269 161.293L684.589 162.143V154.833H674.955L662.772 158.177V164.24L666.172 166.337V203H684.475ZM745.404 173.703H736.791V168.943C736.791 167.583 736.829 166.469 736.904 165.6C737.018 164.693 737.244 163.824 737.584 162.993C737.924 162.124 738.453 161.501 739.171 161.123C739.889 160.708 740.814 160.5 741.948 160.5C743.27 160.5 744.177 161.501 744.668 163.503C745.159 165.506 745.404 168.906 745.404 173.703ZM740.871 204.19C743.138 204.19 745.518 203.926 748.011 203.397C750.504 202.868 753.092 201.848 755.774 200.337C758.494 198.788 760.553 196.88 761.951 194.613L758.608 188.89C757.55 189.872 756.228 190.722 754.641 191.44C753.092 192.158 751.543 192.687 749.994 193.027C748.483 193.367 747.067 193.537 745.744 193.537C744.384 193.537 743.232 193.423 742.288 193.197C741.343 192.97 740.418 192.517 739.511 191.837C738.604 191.157 737.905 190.099 737.414 188.663C736.961 187.228 736.734 185.396 736.734 183.167V182.09H762.631V175.8C762.631 168.056 761.025 162.446 757.814 158.97C754.603 155.457 749.277 153.7 741.834 153.7C734.09 153.7 728.064 155.872 723.758 160.217C719.451 164.561 717.298 170.964 717.298 179.427C717.298 182.978 717.713 186.208 718.544 189.117C719.375 191.988 720.679 194.576 722.454 196.88C724.268 199.184 726.723 200.979 729.821 202.263C732.957 203.548 736.64 204.19 740.871 204.19ZM787.073 203V177.103C788.168 175.063 790.643 174.043 794.496 174.043C797.178 174.043 798.916 174.402 799.71 175.12L801.636 154.947C800.616 154.607 799.634 154.437 798.69 154.437C790.303 154.437 785.335 159.064 783.786 168.32L782.143 154.833H777.553L765.37 157.837V164.24L768.77 166.337V203H787.073ZM828.903 197.39C825.428 197.39 823.69 193.82 823.69 186.68V168.263C823.69 165.846 824.143 163.976 825.05 162.653C825.956 161.331 827.222 160.67 828.846 160.67C832.322 160.67 834.06 164.353 834.06 171.72V189.627C834.06 192.044 833.606 193.952 832.7 195.35C831.831 196.71 830.565 197.39 828.903 197.39ZM828.45 204.19C837.403 204.19 843.958 202.112 848.113 197.957C852.306 193.801 854.403 187.379 854.403 178.69C854.403 170.303 852.42 164.051 848.453 159.933C844.524 155.778 838.121 153.7 829.243 153.7C820.139 153.7 813.565 155.872 809.523 160.217C805.481 164.523 803.46 170.946 803.46 179.483C803.46 188.097 805.462 194.368 809.466 198.297C813.471 202.226 819.799 204.19 828.45 204.19ZM888.286 195.463L890.043 203H905.74V154.833H884.15V161.35L887.21 163.39V190.023C887.096 190.099 886.926 190.231 886.7 190.42C886.511 190.571 886.36 190.684 886.246 190.76C886.171 190.836 886.038 190.949 885.85 191.1C885.661 191.213 885.51 191.308 885.396 191.383C885.283 191.459 885.132 191.553 884.943 191.667C884.754 191.742 884.584 191.799 884.433 191.837C884.32 191.874 884.168 191.931 883.98 192.007C883.791 192.044 883.602 192.082 883.413 192.12C883.224 192.12 883.016 192.12 882.79 192.12C881.203 192.12 880.107 191.723 879.503 190.93C878.898 190.099 878.615 188.833 878.653 187.133V154.833H858.083V161.35L860.066 163.39V183.563C860.066 190.968 861.2 196.257 863.466 199.43C865.771 202.603 869.586 204.19 874.913 204.19C876.613 204.19 878.294 203.812 879.956 203.057C881.618 202.339 883.016 201.47 884.15 200.45C885.283 199.392 886.19 198.429 886.87 197.56C887.587 196.691 888.06 195.992 888.286 195.463ZM928.439 204.19C943.059 204.19 950.369 198.372 950.369 186.737C950.369 182.732 949.367 179.389 947.365 176.707C945.363 174.024 942.152 171.947 937.732 170.473C936.939 170.247 935.994 170.001 934.899 169.737C933.803 169.434 932.953 169.208 932.349 169.057C931.744 168.868 931.121 168.641 930.479 168.377C929.874 168.074 929.44 167.734 929.175 167.357C928.911 166.941 928.779 166.431 928.779 165.827C928.779 163.711 930.573 162.653 934.162 162.653C938.544 162.653 941.982 163.881 944.475 166.337L946.969 158.233C946.969 158.233 946.629 157.912 945.949 157.27C942.889 154.89 938.129 153.7 931.669 153.7C927.891 153.7 924.472 154.248 921.412 155.343C918.352 156.439 915.84 158.214 913.875 160.67C911.911 163.088 910.929 165.997 910.929 169.397C910.929 177.708 915.33 183.186 924.132 185.83C927.532 186.85 929.987 187.757 931.499 188.55C933.01 189.306 933.765 190.174 933.765 191.157C933.765 192.177 933.331 192.97 932.462 193.537C931.631 194.103 930.082 194.387 927.815 194.387C924.68 194.387 921.601 193.933 918.579 193.027C915.594 192.12 913.46 191.043 912.175 189.797L910.702 198.92C911.722 200.053 914.045 201.224 917.672 202.433C921.299 203.604 924.887 204.19 928.439 204.19ZM996.083 203V178.237L1011.38 179.37V165.317H996.083V149.903L1014.73 151.037V136.587H977.326V203H996.083ZM1038.25 203V177.103C1039.35 175.063 1041.82 174.043 1045.68 174.043C1048.36 174.043 1050.1 174.402 1050.89 175.12L1052.82 154.947C1051.8 154.607 1050.82 154.437 1049.87 154.437C1041.48 154.437 1036.52 159.064 1034.97 168.32L1033.32 154.833H1028.73L1016.55 157.837V164.24L1019.95 166.337V203H1038.25ZM1080.08 197.39C1076.61 197.39 1074.87 193.82 1074.87 186.68V168.263C1074.87 165.846 1075.32 163.976 1076.23 162.653C1077.14 161.331 1078.4 160.67 1080.03 160.67C1083.5 160.67 1085.24 164.353 1085.24 171.72V189.627C1085.24 192.044 1084.79 193.952 1083.88 195.35C1083.01 196.71 1081.75 197.39 1080.08 197.39ZM1079.63 204.19C1088.58 204.19 1095.14 202.112 1099.29 197.957C1103.49 193.801 1105.58 187.379 1105.58 178.69C1105.58 170.303 1103.6 164.051 1099.63 159.933C1095.71 155.778 1089.3 153.7 1080.42 153.7C1071.32 153.7 1064.75 155.872 1060.7 160.217C1056.66 164.523 1054.64 170.946 1054.64 179.483C1054.64 188.097 1056.64 194.368 1060.65 198.297C1064.65 202.226 1070.98 204.19 1079.63 204.19ZM1133.57 223.003C1149.29 223.003 1157.15 215.637 1157.15 200.903V163.05L1160.55 160.67V155.343L1149.89 154.833H1141.22L1140.26 157.497C1136.82 155.419 1132.76 154.38 1128.08 154.38C1124.98 154.38 1122.2 155.041 1119.75 156.363C1117.29 157.648 1115.29 159.442 1113.74 161.747C1112.23 164.013 1111.08 166.658 1110.28 169.68C1109.49 172.664 1109.09 175.932 1109.09 179.483C1109.09 187.077 1110.55 193.008 1113.46 197.277C1116.37 201.546 1120.94 203.68 1127.17 203.68C1131.78 203.68 1135.69 202.018 1138.9 198.693V203.51C1138.86 204.341 1138.79 205.097 1138.67 205.777C1138.6 206.457 1138.37 207.212 1137.99 208.043C1137.62 208.912 1137.13 209.63 1136.52 210.197C1135.92 210.801 1135.05 211.292 1133.91 211.67C1132.82 212.086 1131.52 212.293 1130 212.293C1128.49 212.293 1126.68 211.991 1124.56 211.387C1122.45 210.782 1120.92 210.121 1119.97 209.403L1116.4 217.167C1117.5 218.376 1119.9 219.641 1123.6 220.963C1127.3 222.323 1130.63 223.003 1133.57 223.003ZM1135.39 193.367C1132.78 193.367 1130.91 191.874 1129.78 188.89C1129.14 187.152 1128.81 185.074 1128.81 182.657V173.873C1128.85 166.167 1131.38 162.294 1136.41 162.257C1137.16 162.257 1137.99 162.351 1138.9 162.54V192.403C1137.69 193.046 1136.52 193.367 1135.39 193.367ZM1229.1 198.297L1226.55 189.343C1225.19 190.326 1223.46 191.062 1221.34 191.553C1219.22 192.007 1217.2 192.233 1215.28 192.233C1214.41 192.233 1213.6 192.12 1212.84 191.893C1212.08 191.629 1211.23 191.043 1210.29 190.137C1209.35 189.23 1208.53 188.04 1207.85 186.567C1207.17 185.056 1206.59 182.902 1206.1 180.107C1205.64 177.311 1205.42 174.043 1205.42 170.303C1205.42 164.032 1205.78 159.234 1206.49 155.91C1207.21 152.548 1208.25 150.3 1209.61 149.167C1210.97 147.996 1212.92 147.41 1215.45 147.41C1215.9 147.41 1216.47 147.504 1217.15 147.693L1220.09 154.437H1228.71L1229.56 141.403C1229.44 141.252 1229.25 141.044 1228.99 140.78C1228.76 140.516 1228.16 140.043 1227.18 139.363C1226.23 138.683 1225.16 138.079 1223.95 137.55C1222.78 137.021 1221.15 136.549 1219.07 136.133C1217.03 135.718 1214.84 135.51 1212.5 135.51C1207.4 135.51 1203.07 136.284 1199.52 137.833C1195.97 139.382 1193.18 141.706 1191.14 144.803C1189.13 147.863 1187.7 151.433 1186.83 155.513C1185.96 159.556 1185.53 164.372 1185.53 169.963C1185.53 175.214 1185.96 179.842 1186.83 183.847C1187.7 187.813 1189.12 191.383 1191.08 194.557C1193.08 197.692 1195.84 200.091 1199.35 201.753C1202.87 203.378 1207.1 204.19 1212.05 204.19C1214.39 204.19 1216.58 203.982 1218.62 203.567C1220.66 203.189 1222.28 202.717 1223.49 202.15C1224.74 201.546 1225.8 200.96 1226.67 200.393C1227.57 199.789 1228.22 199.298 1228.59 198.92L1229.1 198.297ZM1234.15 203H1252.63V128.767H1248.94L1230.75 131.6V136.87L1234.15 138.91V203ZM1287.89 195.463L1289.64 203H1305.34V154.833H1283.75V161.35L1286.81 163.39V190.023C1286.7 190.099 1286.53 190.231 1286.3 190.42C1286.11 190.571 1285.96 190.684 1285.85 190.76C1285.77 190.836 1285.64 190.949 1285.45 191.1C1285.26 191.213 1285.11 191.308 1285 191.383C1284.88 191.459 1284.73 191.553 1284.54 191.667C1284.35 191.742 1284.18 191.799 1284.03 191.837C1283.92 191.874 1283.77 191.931 1283.58 192.007C1283.39 192.044 1283.2 192.082 1283.01 192.12C1282.82 192.12 1282.62 192.12 1282.39 192.12C1280.8 192.12 1279.71 191.723 1279.1 190.93C1278.5 190.099 1278.21 188.833 1278.25 187.133V154.833H1257.68V161.35L1259.67 163.39V183.563C1259.67 190.968 1260.8 196.257 1263.07 199.43C1265.37 202.603 1269.19 204.19 1274.51 204.19C1276.21 204.19 1277.89 203.812 1279.56 203.057C1281.22 202.339 1282.62 201.47 1283.75 200.45C1284.88 199.392 1285.79 198.429 1286.47 197.56C1287.19 196.691 1287.66 195.992 1287.89 195.463ZM1342.15 203C1345.28 203 1348.06 202.358 1350.48 201.073C1352.93 199.751 1354.94 197.938 1356.48 195.633C1358.03 193.329 1359.2 190.684 1360 187.7C1360.79 184.678 1361.19 181.391 1361.19 177.84C1361.19 170.284 1359.71 164.372 1356.77 160.103C1353.86 155.834 1349.29 153.7 1343.05 153.7C1341.58 153.7 1340.18 153.87 1338.86 154.21C1337.58 154.55 1336.42 155.003 1335.4 155.57C1334.38 156.137 1333.52 156.722 1332.8 157.327C1332.08 157.931 1331.42 158.573 1330.81 159.253V128.767H1327.13L1308.94 131.6V136.87L1312.34 138.91V203H1330.81V200.337C1334.14 202.112 1337.92 203 1342.15 203ZM1333.82 195.123C1333.36 195.123 1332.89 195.104 1332.4 195.067C1331.91 194.991 1331.38 194.878 1330.81 194.727V165.26C1332.25 164.24 1333.67 163.73 1335.06 163.73C1336.92 163.73 1338.43 164.618 1339.6 166.393C1340.81 168.131 1341.41 170.624 1341.41 173.873V183.507C1341.41 191.251 1338.88 195.123 1333.82 195.123Z" fill="white"/>
<path d="M423.48 603.8C423.729 603.8 424.118 603.816 424.647 603.847C425.207 603.878 425.736 603.909 426.233 603.94C426.731 603.971 427.307 604.002 427.96 604.033C428.644 604.033 429.282 604.033 429.873 604.033C429.967 604.033 430.044 604.033 430.107 604.033C430.698 605.931 431.149 608.296 431.46 611.127C431.802 613.927 432.067 616.338 432.253 618.36C432.44 620.351 432.704 621.564 433.047 622H450.267C449.613 621.16 449.007 619.9 448.447 618.22C447.918 616.54 447.436 614.844 447 613.133C446.596 611.391 446.113 609.68 445.553 608C444.993 606.289 444.2 604.811 443.173 603.567C442.178 602.322 440.98 601.529 439.58 601.187C442.162 599.538 444.231 597.313 445.787 594.513C447.373 591.713 448.167 588.509 448.167 584.9C448.167 578.802 446.502 574.276 443.173 571.32C439.876 568.364 434.867 566.887 428.147 566.887C426.218 566.887 423.776 566.964 420.82 567.12C417.864 567.244 415.64 567.307 414.147 567.307H407.987V622H423.48V603.8ZM423.48 595.12V575.893H424.367C427.011 575.893 429.033 576.438 430.433 577.527C431.864 578.584 432.58 580.467 432.58 583.173V586.86C432.58 588.104 432.487 589.193 432.3 590.127C432.113 591.06 431.833 591.822 431.46 592.413C431.087 593.004 430.682 593.487 430.247 593.86C429.842 594.233 429.313 594.513 428.66 594.7C428.038 594.856 427.462 594.964 426.933 595.027C426.404 595.089 425.751 595.12 424.973 595.12H423.48ZM474.711 597.873H467.617V593.953C467.617 592.833 467.648 591.916 467.711 591.2C467.804 590.453 467.991 589.738 468.271 589.053C468.551 588.338 468.986 587.824 469.577 587.513C470.168 587.171 470.931 587 471.864 587C472.953 587 473.699 587.824 474.104 589.473C474.508 591.122 474.711 593.922 474.711 597.873ZM470.977 622.98C472.844 622.98 474.804 622.762 476.857 622.327C478.911 621.891 481.042 621.051 483.251 619.807C485.491 618.531 487.186 616.96 488.337 615.093L485.584 610.38C484.713 611.189 483.624 611.889 482.317 612.48C481.042 613.071 479.766 613.507 478.491 613.787C477.246 614.067 476.079 614.207 474.991 614.207C473.871 614.207 472.922 614.113 472.144 613.927C471.366 613.74 470.604 613.367 469.857 612.807C469.111 612.247 468.535 611.376 468.131 610.193C467.757 609.011 467.571 607.502 467.571 605.667V604.78H488.897V599.6C488.897 593.222 487.575 588.602 484.931 585.74C482.286 582.847 477.899 581.4 471.771 581.4C465.393 581.4 460.431 583.189 456.884 586.767C453.337 590.344 451.564 595.618 451.564 602.587C451.564 605.511 451.906 608.171 452.591 610.567C453.275 612.931 454.348 615.062 455.811 616.96C457.304 618.858 459.326 620.336 461.877 621.393C464.459 622.451 467.493 622.98 470.977 622.98ZM497.639 638.053C502.213 638.053 505.604 636.171 507.812 632.407C510.053 628.673 511.173 623.384 511.173 616.54V582.333H503.846L493.112 584.807V589.8L496.519 591.667V619.807C496.519 621.456 496.457 622.871 496.332 624.053C496.208 625.267 496.053 626.2 495.866 626.853C495.71 627.538 495.492 628.067 495.213 628.44C494.932 628.844 494.668 629.093 494.419 629.187C494.201 629.311 493.937 629.373 493.626 629.373C492.257 629.373 490.888 628.938 489.519 628.067L487.139 633.107C489.815 636.404 493.315 638.053 497.639 638.053ZM503.519 578.04H505.293L513.273 570.34V568.707L505.293 561.053H503.519L495.866 568.707V570.34L503.519 578.04ZM537.738 597.873H530.645V593.953C530.645 592.833 530.676 591.916 530.738 591.2C530.831 590.453 531.018 589.738 531.298 589.053C531.578 588.338 532.013 587.824 532.605 587.513C533.196 587.171 533.958 587 534.891 587C535.98 587 536.727 587.824 537.131 589.473C537.536 591.122 537.738 593.922 537.738 597.873ZM534.005 622.98C535.871 622.98 537.831 622.762 539.885 622.327C541.938 621.891 544.069 621.051 546.278 619.807C548.518 618.531 550.213 616.96 551.365 615.093L548.611 610.38C547.74 611.189 546.651 611.889 545.345 612.48C544.069 613.071 542.793 613.507 541.518 613.787C540.273 614.067 539.107 614.207 538.018 614.207C536.898 614.207 535.949 614.113 535.171 613.927C534.393 613.74 533.631 613.367 532.885 612.807C532.138 612.247 531.562 611.376 531.158 610.193C530.785 609.011 530.598 607.502 530.598 605.667V604.78H551.925V599.6C551.925 593.222 550.602 588.602 547.958 585.74C545.313 582.847 540.927 581.4 534.798 581.4C528.42 581.4 523.458 583.189 519.911 586.767C516.365 590.344 514.591 595.618 514.591 602.587C514.591 605.511 514.933 608.171 515.618 610.567C516.302 612.931 517.376 615.062 518.838 616.96C520.331 618.858 522.353 620.336 524.905 621.393C527.487 622.451 530.52 622.98 534.005 622.98ZM588.2 618.127L585.867 611.78C584.809 612.62 583.455 613.227 581.807 613.6C580.189 613.973 578.602 614.16 577.047 614.16C576.362 614.16 575.787 614.129 575.32 614.067C574.853 614.004 574.247 613.771 573.5 613.367C572.784 612.962 572.209 612.402 571.773 611.687C571.338 610.94 570.949 609.836 570.607 608.373C570.264 606.88 570.093 605.091 570.093 603.007C570.093 598.216 570.622 594.856 571.68 592.927C572.769 590.967 574.729 589.987 577.56 589.987C577.995 589.987 578.338 590.018 578.587 590.08L581.247 597.22L587.873 597.173L588.573 586.207C588.573 586.207 588.247 585.88 587.593 585.227C584.607 582.644 580.407 581.353 574.993 581.353C572.193 581.353 569.58 581.851 567.153 582.847C564.758 583.811 562.658 585.196 560.853 587C559.08 588.773 557.68 591.013 556.653 593.72C555.627 596.427 555.113 599.429 555.113 602.727C555.113 608.824 556.778 613.724 560.107 617.427C563.467 621.129 568.304 622.98 574.62 622.98C576.487 622.98 578.229 622.809 579.847 622.467C581.495 622.156 582.802 621.767 583.767 621.3C584.762 620.802 585.602 620.32 586.287 619.853C587.002 619.356 587.5 618.951 587.78 618.64L588.2 618.127ZM604.13 622.98C606.246 622.98 608.159 622.747 609.87 622.28C611.613 621.813 612.857 621.362 613.604 620.927C614.35 620.46 614.957 619.993 615.424 619.527V613.18C615.081 613.46 614.646 613.678 614.117 613.833C613.588 613.989 612.997 614.067 612.344 614.067C610.85 614.067 609.746 613.662 609.03 612.853C608.315 612.044 607.957 610.396 607.957 607.907V590.547H615.75V582.333H608.097V571.46H599.884L595.124 582.333L589.617 584.06V590.547H592.837V606.413C592.837 612.418 593.661 616.68 595.31 619.2C596.99 621.72 599.93 622.98 604.13 622.98ZM653.534 622V599.693H665.528V622H680.974V567.307H665.528V588.96H653.534V567.307H638.088V622H653.534ZM710.503 615.793L711.95 622H724.876V582.333H707.096V587.7L709.616 589.38V611.313C709.523 611.376 709.383 611.484 709.196 611.64C709.041 611.764 708.916 611.858 708.823 611.92C708.761 611.982 708.652 612.076 708.496 612.2C708.341 612.293 708.216 612.371 708.123 612.433C708.03 612.496 707.905 612.573 707.75 612.667C707.594 612.729 707.454 612.776 707.33 612.807C707.236 612.838 707.112 612.884 706.956 612.947C706.801 612.978 706.645 613.009 706.49 613.04C706.334 613.04 706.163 613.04 705.976 613.04C704.67 613.04 703.767 612.713 703.27 612.06C702.772 611.376 702.539 610.333 702.57 608.933V582.333H685.63V587.7L687.263 589.38V605.993C687.263 612.091 688.196 616.447 690.063 619.06C691.961 621.673 695.103 622.98 699.49 622.98C700.89 622.98 702.274 622.669 703.643 622.047C705.012 621.456 706.163 620.74 707.096 619.9C708.03 619.029 708.776 618.236 709.336 617.52C709.927 616.804 710.316 616.229 710.503 615.793ZM746.37 622V594.793C746.432 594.731 746.541 594.638 746.696 594.513C746.883 594.358 747.007 594.249 747.07 594.187C747.163 594.124 747.287 594.031 747.443 593.907C747.63 593.751 747.77 593.642 747.863 593.58C747.956 593.518 748.081 593.44 748.236 593.347C748.392 593.222 748.532 593.144 748.656 593.113C748.781 593.051 748.921 592.989 749.076 592.927C749.263 592.833 749.418 592.771 749.543 592.74C749.698 592.709 749.854 592.678 750.01 592.647C750.196 592.616 750.383 592.6 750.57 592.6C753.152 592.6 754.396 594.062 754.303 596.987V622H769.703V599.693C769.703 597.951 769.656 596.333 769.563 594.84C771.118 593.347 772.347 592.6 773.25 592.6C774.587 592.6 775.583 592.989 776.236 593.767C776.89 594.544 777.216 595.618 777.216 596.987V622H792.383V598.34C792.383 593.922 792.01 590.5 791.263 588.073C790.516 585.647 789.318 583.936 787.67 582.94C786.052 581.913 783.781 581.4 780.856 581.4C778.212 581.4 775.785 582.209 773.576 583.827C771.398 585.413 769.781 587.124 768.723 588.96C768.038 586.284 766.872 584.356 765.223 583.173C763.574 581.991 761.194 581.4 758.083 581.4C756.87 581.4 755.641 581.649 754.396 582.147C753.183 582.613 752.141 583.142 751.27 583.733C750.43 584.324 749.605 585.009 748.796 585.787C747.987 586.564 747.427 587.14 747.116 587.513C746.836 587.856 746.618 588.136 746.463 588.353V582.333H738.53L728.496 585.087V590.08L731.296 591.807V622H746.37ZM818.448 617.847L819.942 622H832.728L831.422 618.36V599.367C831.422 595.944 831.157 593.129 830.628 590.92C830.1 588.68 829.197 586.844 827.922 585.413C826.677 583.951 825.044 582.924 823.022 582.333C821 581.711 818.433 581.4 815.322 581.4C811.806 581.4 808.353 581.929 804.962 582.987C801.571 584.013 798.817 585.211 796.702 586.58L799.688 592.927C800.871 592.304 802.504 591.776 804.588 591.34C806.673 590.873 808.68 590.64 810.608 590.64C812.848 590.64 814.466 591.029 815.462 591.807C816.488 592.584 817.002 593.922 817.002 595.82V596.66C815.944 596.66 814.84 596.707 813.688 596.8C812.537 596.893 811.231 597.08 809.768 597.36C808.306 597.64 806.906 597.998 805.568 598.433C804.262 598.838 802.955 599.413 801.648 600.16C800.342 600.876 799.222 601.7 798.288 602.633C797.355 603.567 796.593 604.718 796.002 606.087C795.411 607.424 795.115 608.902 795.115 610.52C795.115 618.827 799.315 622.98 807.715 622.98C808.96 622.98 810.173 622.793 811.355 622.42C812.537 622.078 813.533 621.658 814.342 621.16C815.182 620.662 815.913 620.164 816.535 619.667C817.188 619.169 817.671 618.733 817.982 618.36L818.448 617.847ZM814.762 614.767C812.117 614.767 810.795 612.822 810.795 608.933C810.795 606.756 811.355 605.153 812.475 604.127C813.595 603.069 815.104 602.54 817.002 602.54V613.74C817.002 613.74 816.908 613.833 816.722 614.02C816.535 614.176 816.255 614.347 815.882 614.533C815.54 614.689 815.166 614.767 814.762 614.767ZM852.463 622V594.793C852.526 594.731 852.634 594.638 852.79 594.513C852.977 594.358 853.101 594.249 853.163 594.187C853.257 594.124 853.381 594.031 853.537 593.907C853.723 593.751 853.863 593.642 853.957 593.58C854.05 593.518 854.174 593.44 854.33 593.347C854.486 593.222 854.626 593.144 854.75 593.113C854.874 593.051 855.014 592.989 855.17 592.927C855.357 592.833 855.512 592.771 855.637 592.74C855.792 592.709 855.948 592.678 856.103 592.647C856.29 592.616 856.477 592.6 856.663 592.6C859.246 592.6 860.49 594.062 860.397 596.987V622H875.797V598.34C875.797 598.122 875.812 597.827 875.843 597.453C875.843 597.08 875.843 596.8 875.843 596.613C875.843 591.138 874.957 587.233 873.183 584.9C871.441 582.567 868.439 581.4 864.177 581.4C862.963 581.4 861.719 581.649 860.443 582.147C859.199 582.613 858.126 583.189 857.223 583.873C856.321 584.527 855.497 585.196 854.75 585.88C854.034 586.564 853.49 587.156 853.117 587.653L852.557 588.353V582.333H844.623L834.59 585.087V590.08L837.39 591.807V622H852.463ZM881.687 622H896.714V582.333H888.92L878.887 585.087V590.08L881.687 591.807V622ZM888.454 578.04H890.227L898.207 570.34V568.707L890.227 561.053H888.454L880.8 568.707V570.34L888.454 578.04ZM914.072 622.98C916.187 622.98 918.101 622.747 919.812 622.28C921.554 621.813 922.798 621.362 923.545 620.927C924.292 620.46 924.898 619.993 925.365 619.527V613.18C925.023 613.46 924.587 613.678 924.058 613.833C923.529 613.989 922.938 614.067 922.285 614.067C920.792 614.067 919.687 613.662 918.972 612.853C918.256 612.044 917.898 610.396 917.898 607.907V590.547H925.692V582.333H918.038V571.46H909.825L905.065 582.333L899.558 584.06V590.547H902.778V606.413C902.778 612.418 903.603 616.68 905.252 619.2C906.932 621.72 909.872 622.98 914.072 622.98ZM948.945 638.053C955.074 638.053 959.601 636.187 962.525 632.453C965.45 628.72 966.912 623.416 966.912 616.54V582.333H949.132V587.7L951.699 589.38V611.313C951.263 611.687 950.843 611.998 950.439 612.247C950.065 612.496 949.676 612.698 949.272 612.853C948.867 612.978 948.463 613.04 948.059 613.04C946.69 613.04 945.772 612.713 945.305 612.06C944.87 611.376 944.652 610.318 944.652 608.887V582.333H927.665V587.7L929.345 589.38V605.947C929.345 612.107 930.294 616.493 932.192 619.107C934.09 621.689 937.356 622.98 941.992 622.98C943.205 622.98 944.387 622.731 945.539 622.233C946.721 621.736 947.716 621.144 948.525 620.46C949.334 619.744 950.05 619.044 950.672 618.36C951.325 617.644 951.807 617.038 952.119 616.54L952.585 615.793V619.807C952.554 621.673 952.352 623.244 951.979 624.52C951.605 625.796 951.061 626.776 950.345 627.46C949.63 628.176 948.821 628.673 947.919 628.953C947.016 629.233 945.943 629.373 944.699 629.373C940.779 629.373 937.916 628.86 936.112 627.833L933.685 632.873C934.992 634.46 937.061 635.72 939.892 636.653C942.723 637.587 945.741 638.053 948.945 638.053ZM977.912 633.573C981.085 630.836 983.496 627.74 985.145 624.287C986.825 620.833 987.665 617.8 987.665 615.187V613.553L979.685 605.9H977.912L970.258 613.553V615.187L976.838 621.813C976.434 623.867 975.687 625.718 974.598 627.367C973.541 629.047 972.498 630.322 971.472 631.193L977.912 633.573ZM1026.14 603.8C1026.39 603.8 1026.77 603.816 1027.3 603.847C1027.86 603.878 1028.39 603.909 1028.89 603.94C1029.39 603.971 1029.96 604.002 1030.62 604.033C1031.3 604.033 1031.94 604.033 1032.53 604.033C1032.62 604.033 1032.7 604.033 1032.76 604.033C1033.35 605.931 1033.81 608.296 1034.12 611.127C1034.46 613.927 1034.72 616.338 1034.91 618.36C1035.1 620.351 1035.36 621.564 1035.7 622H1052.92C1052.27 621.16 1051.66 619.9 1051.1 618.22C1050.57 616.54 1050.09 614.844 1049.66 613.133C1049.25 611.391 1048.77 609.68 1048.21 608C1047.65 606.289 1046.86 604.811 1045.83 603.567C1044.83 602.322 1043.64 601.529 1042.24 601.187C1044.82 599.538 1046.89 597.313 1048.44 594.513C1050.03 591.713 1050.82 588.509 1050.82 584.9C1050.82 578.802 1049.16 574.276 1045.83 571.32C1042.53 568.364 1037.52 566.887 1030.8 566.887C1028.87 566.887 1026.43 566.964 1023.48 567.12C1020.52 567.244 1018.3 567.307 1016.8 567.307H1010.64V622H1026.14V603.8ZM1026.14 595.12V575.893H1027.02C1029.67 575.893 1031.69 576.438 1033.09 577.527C1034.52 578.584 1035.24 580.467 1035.24 583.173V586.86C1035.24 588.104 1035.14 589.193 1034.96 590.127C1034.77 591.06 1034.49 591.822 1034.12 592.413C1033.74 593.004 1033.34 593.487 1032.9 593.86C1032.5 594.233 1031.97 594.513 1031.32 594.7C1030.69 594.856 1030.12 594.964 1029.59 595.027C1029.06 595.089 1028.41 595.12 1027.63 595.12H1026.14ZM1077.37 597.873H1070.27V593.953C1070.27 592.833 1070.3 591.916 1070.37 591.2C1070.46 590.453 1070.65 589.738 1070.93 589.053C1071.21 588.338 1071.64 587.824 1072.23 587.513C1072.82 587.171 1073.59 587 1074.52 587C1075.61 587 1076.36 587.824 1076.76 589.473C1077.16 591.122 1077.37 593.922 1077.37 597.873ZM1073.63 622.98C1075.5 622.98 1077.46 622.762 1079.51 622.327C1081.57 621.891 1083.7 621.051 1085.91 619.807C1088.15 618.531 1089.84 616.96 1090.99 615.093L1088.24 610.38C1087.37 611.189 1086.28 611.889 1084.97 612.48C1083.7 613.071 1082.42 613.507 1081.15 613.787C1079.9 614.067 1078.74 614.207 1077.65 614.207C1076.53 614.207 1075.58 614.113 1074.8 613.927C1074.02 613.74 1073.26 613.367 1072.51 612.807C1071.77 612.247 1071.19 611.376 1070.79 610.193C1070.41 609.011 1070.23 607.502 1070.23 605.667V604.78H1091.55V599.6C1091.55 593.222 1090.23 588.602 1087.59 585.74C1084.94 582.847 1080.56 581.4 1074.43 581.4C1068.05 581.4 1063.09 583.189 1059.54 586.767C1055.99 590.344 1054.22 595.618 1054.22 602.587C1054.22 605.511 1054.56 608.171 1055.25 610.567C1055.93 612.931 1057 615.062 1058.47 616.96C1059.96 618.858 1061.98 620.336 1064.53 621.393C1067.12 622.451 1070.15 622.98 1073.63 622.98ZM1107.53 622.98C1109.64 622.98 1111.56 622.747 1113.27 622.28C1115.01 621.813 1116.26 621.362 1117 620.927C1117.75 620.46 1118.36 619.993 1118.82 619.527V613.18C1118.48 613.46 1118.04 613.678 1117.52 613.833C1116.99 613.989 1116.4 614.067 1115.74 614.067C1114.25 614.067 1113.14 613.662 1112.43 612.853C1111.71 612.044 1111.36 610.396 1111.36 607.907V590.547H1119.15V582.333H1111.5V571.46H1103.28L1098.52 582.333L1093.02 584.06V590.547H1096.24V606.413C1096.24 612.418 1097.06 616.68 1098.71 619.2C1100.39 621.72 1103.33 622.98 1107.53 622.98ZM1146.09 615.793L1147.54 622H1160.46V582.333H1142.68V587.7L1145.2 589.38V611.313C1145.11 611.376 1144.97 611.484 1144.78 611.64C1144.63 611.764 1144.5 611.858 1144.41 611.92C1144.35 611.982 1144.24 612.076 1144.08 612.2C1143.93 612.293 1143.8 612.371 1143.71 612.433C1143.62 612.496 1143.49 612.573 1143.34 612.667C1143.18 612.729 1143.04 612.776 1142.92 612.807C1142.82 612.838 1142.7 612.884 1142.54 612.947C1142.39 612.978 1142.23 613.009 1142.08 613.04C1141.92 613.04 1141.75 613.04 1141.56 613.04C1140.26 613.04 1139.35 612.713 1138.86 612.06C1138.36 611.376 1138.12 610.333 1138.16 608.933V582.333H1121.22V587.7L1122.85 589.38V605.993C1122.85 612.091 1123.78 616.447 1125.65 619.06C1127.55 621.673 1130.69 622.98 1135.08 622.98C1136.48 622.98 1137.86 622.669 1139.23 622.047C1140.6 621.456 1141.75 620.74 1142.68 619.9C1143.62 619.029 1144.36 618.236 1144.92 617.52C1145.51 616.804 1145.9 616.229 1146.09 615.793ZM1181.96 622V600.673C1182.86 598.993 1184.9 598.153 1188.07 598.153C1190.28 598.153 1191.71 598.449 1192.36 599.04L1193.95 582.427C1193.11 582.147 1192.3 582.007 1191.52 582.007C1184.62 582.007 1180.52 585.818 1179.25 593.44L1177.9 582.333H1174.12L1164.08 584.807V590.08L1166.88 591.807V622H1181.96ZM1212.72 622V594.793C1212.78 594.731 1212.89 594.638 1213.04 594.513C1213.23 594.358 1213.36 594.249 1213.42 594.187C1213.51 594.124 1213.64 594.031 1213.79 593.907C1213.98 593.751 1214.12 593.642 1214.21 593.58C1214.3 593.518 1214.43 593.44 1214.58 593.347C1214.74 593.222 1214.88 593.144 1215 593.113C1215.13 593.051 1215.27 592.989 1215.42 592.927C1215.61 592.833 1215.77 592.771 1215.89 592.74C1216.05 592.709 1216.2 592.678 1216.36 592.647C1216.54 592.616 1216.73 592.6 1216.92 592.6C1219.5 592.6 1220.74 594.062 1220.65 596.987V622H1236.05V598.34C1236.05 598.122 1236.07 597.827 1236.1 597.453C1236.1 597.08 1236.1 596.8 1236.1 596.613C1236.1 591.138 1235.21 587.233 1233.44 584.9C1231.7 582.567 1228.69 581.4 1224.43 581.4C1223.22 581.4 1221.97 581.649 1220.7 582.147C1219.45 582.613 1218.38 583.189 1217.48 583.873C1216.58 584.527 1215.75 585.196 1215 585.88C1214.29 586.564 1213.74 587.156 1213.37 587.653L1212.81 588.353V582.333H1204.88L1194.84 585.087V590.08L1197.64 591.807V622H1212.72ZM1268.84 622H1284.61V579.673H1295.53V567.307H1257.92V579.673H1268.84V622ZM1318.94 617.38C1316.08 617.38 1314.65 614.44 1314.65 608.56V593.393C1314.65 591.402 1315.02 589.862 1315.77 588.773C1316.52 587.684 1317.56 587.14 1318.9 587.14C1321.76 587.14 1323.19 590.173 1323.19 596.24V610.987C1323.19 612.978 1322.82 614.549 1322.07 615.7C1321.35 616.82 1320.31 617.38 1318.94 617.38ZM1318.57 622.98C1325.94 622.98 1331.34 621.269 1334.76 617.847C1338.22 614.424 1339.94 609.136 1339.94 601.98C1339.94 595.073 1338.31 589.924 1335.04 586.533C1331.81 583.111 1326.53 581.4 1319.22 581.4C1311.73 581.4 1306.31 583.189 1302.98 586.767C1299.65 590.313 1297.99 595.602 1297.99 602.633C1297.99 609.727 1299.64 614.891 1302.94 618.127C1306.23 621.362 1311.45 622.98 1318.57 622.98ZM1378.69 622V601.607L1391.29 602.54V590.967H1378.69V578.273L1394.04 579.207V567.307H1363.24V622H1378.69ZM1413.42 622V600.673C1414.32 598.993 1416.36 598.153 1419.53 598.153C1421.74 598.153 1423.17 598.449 1423.83 599.04L1425.41 582.427C1424.57 582.147 1423.76 582.007 1422.99 582.007C1416.08 582.007 1411.99 585.818 1410.71 593.44L1409.36 582.333H1405.58L1395.55 584.807V590.08L1398.35 591.807V622H1413.42ZM1447.87 617.38C1445.01 617.38 1443.58 614.44 1443.58 608.56V593.393C1443.58 591.402 1443.95 589.862 1444.7 588.773C1445.44 587.684 1446.48 587.14 1447.82 587.14C1450.68 587.14 1452.12 590.173 1452.12 596.24V610.987C1452.12 612.978 1451.74 614.549 1451 615.7C1450.28 616.82 1449.24 617.38 1447.87 617.38ZM1447.5 622.98C1454.87 622.98 1460.27 621.269 1463.69 617.847C1467.14 614.424 1468.87 609.136 1468.87 601.98C1468.87 595.073 1467.24 589.924 1463.97 586.533C1460.73 583.111 1455.46 581.4 1448.15 581.4C1440.65 581.4 1435.24 583.189 1431.91 586.767C1428.58 590.313 1426.92 595.602 1426.92 602.633C1426.92 609.727 1428.56 614.891 1431.86 618.127C1435.16 621.362 1440.37 622.98 1447.5 622.98ZM1491.92 638.473C1504.86 638.473 1511.33 632.407 1511.33 620.273V589.1L1514.13 587.14V582.753L1505.36 582.333H1498.22L1497.43 584.527C1494.59 582.816 1491.25 581.96 1487.39 581.96C1484.84 581.96 1482.55 582.504 1480.53 583.593C1478.51 584.651 1476.86 586.129 1475.59 588.027C1474.34 589.893 1473.39 592.071 1472.74 594.56C1472.09 597.018 1471.76 599.709 1471.76 602.633C1471.76 608.887 1472.96 613.771 1475.35 617.287C1477.75 620.802 1481.51 622.56 1486.65 622.56C1490.44 622.56 1493.66 621.191 1496.31 618.453V622.42C1496.27 623.104 1496.21 623.727 1496.12 624.287C1496.06 624.847 1495.87 625.469 1495.56 626.153C1495.25 626.869 1494.84 627.46 1494.35 627.927C1493.85 628.424 1493.13 628.829 1492.2 629.14C1491.3 629.482 1490.22 629.653 1488.98 629.653C1487.73 629.653 1486.24 629.404 1484.5 628.907C1482.76 628.409 1481.5 627.864 1480.72 627.273L1477.78 633.667C1478.68 634.662 1480.66 635.704 1483.71 636.793C1486.75 637.913 1489.49 638.473 1491.92 638.473ZM1493.41 614.067C1491.27 614.067 1489.73 612.838 1488.79 610.38C1488.26 608.949 1488 607.238 1488 605.247V598.013C1488.03 591.667 1490.11 588.478 1494.25 588.447C1494.87 588.447 1495.56 588.524 1496.31 588.68V613.273C1495.31 613.802 1494.35 614.067 1493.41 614.067Z" fill="white"/>
</g>
<defs>
<clipPath id="clip0_3_6">
<rect width="1920" height="806" fill="white"/>
</clipPath>
</defs>
</svg>
