<svg id="Layer_1" data-name="Layer 1" xmlns="http://www.w3.org/2000/svg" viewBox="0 0 500 500">
  <defs>
    <style>
      .cls-1 {
        fill: #fff;
      }
    </style>
  </defs>
  <g>
    <path class="cls-1" d="M480.24,225.7,396,234.94l15.81-33.78L378,161.63l-49,27.64,22.45-21.89-.77-31.9-11.49-8.69,4.36-18.36-6.11-22.28-18-2.05L302.3,98.86l-11-8.3L252.51,97l-25.87-5.76-12.76,8.1-20.31-16-20.13,5.75-7.9,22.28,1.87,17.49-8.71,5.52-12.83,36.3L166,187.83l-48.1-19.28L94.31,195.17l16.78,46.48L32.56,222.1l-9.64,35.84,3.38,81.4L13.61,402.86l132.33,13.77,229.76-8.26,103.24-.52L486.39,283ZM318.64,94.15l9.52-1.06,7.73,9-5,29.48-11.5-13.66-16.53-5Zm-139.44,0,13.66-.71,16.53,17.25-20.14-1.44-12.93,18.68-5-18Zm128.71,71.79L242.2,145l-61.92,23.36-13.61-11.48L180,160.9l65.59-27.21,60,25.15,17.42-3Z"/>
    <polygon points="335.89 102.06 330.86 131.53 319.37 117.88 302.83 112.84 318.64 94.15 328.16 93.09 335.89 102.06"/>
    <polygon points="209.39 110.69 189.25 109.25 176.32 127.93 171.29 109.97 179.2 94.15 192.85 93.44 209.39 110.69"/>
    <polygon points="323 155.87 307.91 165.94 242.2 144.95 180.28 168.31 166.67 156.83 179.97 160.9 245.56 133.69 305.58 158.84 323 155.87"/>
    <g>
      <g>
        <path d="M132.63,263.12v21.19H82.24l-.58,46.38,25.58.38-.38,21.19-25.58-.19-.57,41.41-21.38-.38,1.91-119.48.19-10.5Z"/>
        <path d="M163.92,390.62H142.55V266.56l9.73-1q17.76-1.71,30.64,4.87a45.92,45.92,0,0,1,19.75,19A47.64,47.64,0,0,1,208.78,311,52.69,52.69,0,0,1,205,333.36a53.83,53.83,0,0,1-10.49,16,28.61,28.61,0,0,1,4.38,2.29A28.28,28.28,0,0,1,210,365.9q3.34,9.08,3.91,24.91l-21.38.38q-.37-18.51-5.53-21.76-4.58-3-23.1-3.62Zm0-103.83v56.69q15.66-4.39,21.38-18.14A32,32,0,0,0,187.4,312a26.56,26.56,0,0,0-3.24-12.21Q178,288.7,163.92,286.79Z"/>
        <path d="M227.1,307q4.58-17.37,14.12-28.63t23.1-12q12.4-.57,20.71,7.73t12.12,23a100.44,100.44,0,0,1,3.24,26.52,111.52,111.52,0,0,1-3.24,27.11q-4.2,17.94-13.55,28.82t-22.72,10.5q-12.78-.39-21.28-8.69t-12.5-22.23a85.86,85.86,0,0,1-3.25-25.77A116.52,116.52,0,0,1,227.1,307Zm38.37-19.28q-5.73.19-10.31,7.07a59.09,59.09,0,0,0-7.45,17.56A94,94,0,0,0,245,333.55a73.74,73.74,0,0,0,2.48,19.66q4.59,15.46,13.93,15.65a7.37,7.37,0,0,0,3.82-1.14,13.79,13.79,0,0,0,3.53-3.15,25.92,25.92,0,0,0,3.06-5,55.23,55.23,0,0,0,2.58-6.39q1.14-3.43,2.09-7.44A94.11,94.11,0,0,0,279,323.62a80.33,80.33,0,0,0-2.48-21Q272.53,287.36,265.47,287.74Z"/>
        <path d="M347.16,324.2a19.14,19.14,0,0,0,2.09-.1l2.39-.19c1-.06,2-.09,3.05-.09s2.2,0,3.34-.1l3.73-.19c1.33-.06,2.57-.1,3.72-.1l10.31-.19.57,10.31c0,.13.06,1.4.19,3.82a159.06,159.06,0,0,1,.38,18.32A71.22,71.22,0,0,1,375,369.24a44.79,44.79,0,0,1-4.67,11.55,20,20,0,0,1-9.17,8.21,31.34,31.34,0,0,1-14.6,2.38,29.39,29.39,0,0,1-12.6-3.62q-13.17-7.06-19.46-26.34-5-15.65-4-35.12,1.14-23.48,10.12-40.08a43.38,43.38,0,0,1,12.4-14.6,34,34,0,0,1,15.08-6.4,26.66,26.66,0,0,1,14.12,1.91,24.28,24.28,0,0,1,11.07,9.16q9.17,13.36,2.1,33.21l-20-1.72a34.45,34.45,0,0,0,1.72-11.35c0-4.26-.45-7-1.34-8.11a3.66,3.66,0,0,0-1.91-1.53,5.41,5.41,0,0,0-2.86-.38q-6.69.76-11.83,9.92-6.69,12.42-7.45,30.92a76.37,76.37,0,0,0,3.25,27.68q3.44,11.07,9.16,14.12a8.1,8.1,0,0,0,3.63,1.15q7.25.38,8-15.46.19-4.2,0-9.55c-.76,0-1.53,0-2.29.1s-1.43.09-2,.09a11.55,11.55,0,0,0-1.53.1,9.3,9.3,0,0,1-1.43.09Z"/>
        <path d="M392.39,341.57,413,347.29q-4.77,16.6.76,22.14,2.48,2.29,6.87,1.91a11.42,11.42,0,0,0,8-3.82q3.81-4.18.57-11.06a83.61,83.61,0,0,0-9.73-14.89,109,109,0,0,0-14.13-15.08q-10.31-9.35-14.22-19.09T389,290.13a32.72,32.72,0,0,1,7.54-14,34.85,34.85,0,0,1,16.8-10.88q10.68-3.24,20,.19A25.3,25.3,0,0,1,445,273.62q4.29,5.53,5.34,15.17t-3.91,23l-20-7.25q5.91-16.8-.19-19.09a11.06,11.06,0,0,0-6.68.19,14.9,14.9,0,0,0-7.06,4.39,10.09,10.09,0,0,0-2,5.16q-.29,2.87,2,6.87a36.31,36.31,0,0,0,7.06,8.4,128.63,128.63,0,0,1,16.8,17.94,103.85,103.85,0,0,1,12,18.89q4.77,11.07,3.43,19.47a28.67,28.67,0,0,1-7.44,15.08,32,32,0,0,1-21.76,10.69q-14.51,1.34-23.86-8.21Q384.37,370,392.39,341.57Z"/>
      </g>
      <g>
        <path d="M153.49,224.88c.25,0,.47,0,.67,0l.77-.06c.3,0,.63,0,1,0l1.08,0,1.19-.06,1.19,0,3.31-.06.18,3.3s0,.45.06,1.22A52.32,52.32,0,0,1,163,235a23,23,0,0,1-.62,4.34,13.7,13.7,0,0,1-1.5,3.7,6.31,6.31,0,0,1-2.93,2.63,10,10,0,0,1-4.68.77,9.42,9.42,0,0,1-4-1.16c-2.81-1.51-4.9-4.33-6.24-8.45a32,32,0,0,1-1.29-11.25A29.86,29.86,0,0,1,145,212.71a13.9,13.9,0,0,1,4-4.68A10.85,10.85,0,0,1,153.8,206a8.47,8.47,0,0,1,4.52.61,7.76,7.76,0,0,1,3.55,2.94q2.94,4.28.67,10.64l-6.42-.55a11,11,0,0,0,.55-3.64,4.91,4.91,0,0,0-.43-2.6,1.2,1.2,0,0,0-.61-.49,1.77,1.77,0,0,0-.92-.12q-2.15.24-3.79,3.18a22.82,22.82,0,0,0-2.39,9.91,24.43,24.43,0,0,0,1.05,8.87q1.09,3.56,2.93,4.53a2.52,2.52,0,0,0,1.16.37q2.33.12,2.57-5,.06-1.33,0-3.06c-.24,0-.49,0-.73,0s-.46,0-.64,0a3.48,3.48,0,0,0-.49,0,3.44,3.44,0,0,1-.46,0Z"/>
        <path d="M185.73,226.78v6.85h-9.42l-.12,5.75,15.35-.42.19,6.85-19,.49-3.55.06.12-3.55.86-33.47.06-3.36H191.3v6.85H176.86l-.36,13.95Z"/>
        <path d="M204.57,244l-6.79.06-.36-34-.07-3.49h9.73l.86,2.2,8.75,22,1-24.35,6.79.24-1.41,35.92-.12,3.3H215.4l-.85-2.2-10.22-25.64Z"/>
        <path d="M246.73,226.78v6.85h-9.42l-.12,5.75,15.35-.42.19,6.85-19,.49-3.55.06.12-3.55.86-33.47.06-3.36H252.3v6.85H237.86l-.37,13.95Z"/>
        <path d="M265.2,246.17h-6.85V206.41l3.12-.31a17.46,17.46,0,0,1,9.82,1.56,14.72,14.72,0,0,1,6.33,6.09,15.14,15.14,0,0,1,2,6.91,16.74,16.74,0,0,1-1.22,7.16A17.27,17.27,0,0,1,275,233a10.06,10.06,0,0,1,1.41.73,9.08,9.08,0,0,1,3.58,4.56,26.75,26.75,0,0,1,1.25,8l-6.85.12c-.08-4-.67-6.28-1.77-7s-3.45-1-7.41-1.16Zm0-33.28v18.17a9.84,9.84,0,0,0,6.86-5.81,10.26,10.26,0,0,0,.67-4.28,8.54,8.54,0,0,0-1-3.92A8.18,8.18,0,0,0,265.2,212.89Z"/>
        <path d="M287.9,219.38a23.12,23.12,0,0,1,4.53-9.18,10.2,10.2,0,0,1,7.41-3.86,8.42,8.42,0,0,1,6.63,2.48,15.85,15.85,0,0,1,3.89,7.38,32.28,32.28,0,0,1,1,8.5,35.91,35.91,0,0,1-1,8.69,21.6,21.6,0,0,1-4.34,9.24,8.94,8.94,0,0,1-7.28,3.36,9.83,9.83,0,0,1-6.83-2.78,16,16,0,0,1-4-7.13,27.6,27.6,0,0,1-1-8.26A38,38,0,0,1,287.9,219.38Zm12.3-6.18a4.25,4.25,0,0,0-3.3,2.26,19,19,0,0,0-2.39,5.63,30,30,0,0,0-.85,6.79,23.52,23.52,0,0,0,.79,6.3q1.47,5,4.47,5a2.33,2.33,0,0,0,1.22-.37,4.24,4.24,0,0,0,1.13-1,8.06,8.06,0,0,0,1-1.59,16.83,16.83,0,0,0,.83-2c.24-.73.46-1.53.67-2.38a30.35,30.35,0,0,0,.79-7.1,25.85,25.85,0,0,0-.79-6.73Q302.46,213.08,300.2,213.2Z"/>
        <path d="M317.39,209.47l6.79-.19c0,.57,0,1.9-.12,4q-.06,2.2-.12,3.45c0,.84-.09,2.13-.12,3.86s0,3.18,0,4.34.13,2.54.21,4.13a23.44,23.44,0,0,0,.49,4,33.24,33.24,0,0,0,.89,3.21,6.52,6.52,0,0,0,1.34,2.48,3.33,3.33,0,0,0,1.87,1.07c3.55.7,5.93-2,7.16-8.13q1.33-6.8.73-21.36-.18-3.42-.12-4.77l6.79.18q0,.61.12,4.29.74,15.42-.8,23-3.18,15.91-15.23,13.52a10,10,0,0,1-3.06-1.22,8.22,8.22,0,0,1-2.41-2.26,27.86,27.86,0,0,1-1.84-2.91,14.15,14.15,0,0,1-1.32-3.64c-.32-1.43-.61-2.75-.85-3.95a30.27,30.27,0,0,1-.52-4.25c-.1-1.63-.18-3-.24-4.16s-.08-2.53,0-4.16.07-2.88.1-3.73.06-2,.15-3.31Q317.39,209.89,317.39,209.47Z"/>
        <path d="M350.55,230.45l6.61,1.84c-1,3.54-.94,5.91.24,7.09a2.77,2.77,0,0,0,2.21.62,3.66,3.66,0,0,0,2.56-1.23c.82-.9.88-2.08.19-3.55a26.6,26.6,0,0,0-3.12-4.77,34.45,34.45,0,0,0-4.53-4.83,17.18,17.18,0,0,1-4.56-6.12,9.15,9.15,0,0,1-.67-5.54,10.37,10.37,0,0,1,2.42-4.49,11.06,11.06,0,0,1,5.38-3.49,10,10,0,0,1,6.43.06,8.12,8.12,0,0,1,3.7,2.63,9.49,9.49,0,0,1,1.71,4.86,16.6,16.6,0,0,1-1.25,7.38l-6.43-2.33c1.26-3.59,1.25-5.63-.06-6.12a3.58,3.58,0,0,0-2.14.06,4.76,4.76,0,0,0-2.26,1.41,3.31,3.31,0,0,0-.65,1.65,3.87,3.87,0,0,0,.65,2.21,11.55,11.55,0,0,0,2.26,2.69,41.43,41.43,0,0,1,5.38,5.75,33.27,33.27,0,0,1,3.86,6.06,11.44,11.44,0,0,1,1.1,6.24,9.21,9.21,0,0,1-2.39,4.83,10.25,10.25,0,0,1-7,3.43,9,9,0,0,1-7.65-2.63Q348,239.57,350.55,230.45Z"/>
      </g>
    </g>
  </g>
</svg>
